<svg width="82" height="54" viewBox="0 0 82 54" fill="none" xmlns="http://www.w3.org/2000/svg">
<path d="M0.417969 27.0205C0.417969 21.5805 0.711302 17.1539 1.29797 13.7405C1.88464 10.2739 2.92464 7.60719 4.41797 5.74052C5.96464 3.87385 8.09797 2.59385 10.818 1.90052C13.538 1.15385 17.0846 0.780518 21.458 0.780518C25.778 0.780518 29.298 1.15385 32.018 1.90052C34.7913 2.59385 36.9246 3.87385 38.418 5.74052C39.9113 7.55385 40.9513 10.1939 41.538 13.6605C42.1246 17.1272 42.418 21.5805 42.418 27.0205C42.418 31.4472 42.2313 35.2072 41.858 38.3005C41.538 41.3405 40.9513 43.8472 40.098 45.8205C39.2446 47.7405 38.018 49.2605 36.418 50.3805C34.8713 51.4472 32.8713 52.1672 30.418 52.5405C27.9646 52.9672 24.978 53.1805 21.458 53.1805C17.938 53.1805 14.9513 52.9672 12.498 52.5405C10.0446 52.1139 8.01797 51.3672 6.41797 50.3005C4.8713 49.2339 3.64464 47.7139 2.73797 45.7405C1.88464 43.7672 1.2713 41.2605 0.897969 38.2205C0.577969 35.1272 0.417969 31.3939 0.417969 27.0205ZM10.978 9.18052V40.5405C10.978 42.2472 11.4046 43.3939 12.258 43.9805C13.1646 44.5139 15.0313 44.7805 17.858 44.7805H31.858V13.4205C31.858 11.7139 31.3513 10.5939 30.338 10.0605C29.3246 9.47385 27.378 9.18052 24.498 9.18052H10.978Z" fill="black"/>
<path d="M49.4392 51.9805V43.8205H61.5992V10.5405L48.6392 11.9005V3.18052L71.4392 0.780518V43.8205H81.1992V51.9805H49.4392Z" fill="black"/>
<path d="M9.0779 42.9681L30.7965 5.35028L37.1812 9.03646L15.4626 46.6543L9.0779 42.9681Z" fill="black"/>
</svg>
