<svg width="87" height="54" viewBox="0 0 87 54" fill="none" xmlns="http://www.w3.org/2000/svg">
<path d="M0.205078 27.1489C0.205078 21.7089 0.498411 17.2823 1.08508 13.8689C1.67174 10.4023 2.71174 7.7356 4.20508 5.86894C5.75174 4.00227 7.88508 2.72227 10.6051 2.02894C13.3251 1.28227 16.8717 0.908936 21.2451 0.908936C25.5651 0.908936 29.0851 1.28227 31.8051 2.02894C34.5784 2.72227 36.7117 4.00227 38.2051 5.86894C39.6984 7.68227 40.7384 10.3223 41.3251 13.7889C41.9117 17.2556 42.2051 21.7089 42.2051 27.1489C42.2051 31.5756 42.0184 35.3356 41.6451 38.4289C41.3251 41.4689 40.7384 43.9756 39.8851 45.9489C39.0317 47.8689 37.8051 49.3889 36.2051 50.5089C34.6584 51.5756 32.6584 52.2956 30.2051 52.6689C27.7517 53.0956 24.7651 53.3089 21.2451 53.3089C17.7251 53.3089 14.7384 53.0956 12.2851 52.6689C9.83175 52.2423 7.80508 51.4956 6.20508 50.4289C4.65841 49.3623 3.43174 47.8423 2.52508 45.8689C1.67174 43.8956 1.05841 41.3889 0.685078 38.3489C0.365078 35.2556 0.205078 31.5223 0.205078 27.1489ZM10.7651 9.30894V40.6689C10.7651 42.3756 11.1917 43.5223 12.0451 44.1089C12.9517 44.6423 14.8184 44.9089 17.6451 44.9089H31.6451V13.5489C31.6451 11.8423 31.1384 10.7223 30.1251 10.1889C29.1117 9.60227 27.1651 9.30894 24.2851 9.30894H10.7651Z" fill="black"/>
<path d="M50.5863 52.1089V44.1089C50.5863 41.8156 50.7463 39.8156 51.0663 38.1089C51.4397 36.3489 52.1063 34.8023 53.0663 33.4689C54.0797 32.1356 55.5197 30.8289 57.3863 29.5489C59.3063 28.2689 61.813 26.9356 64.9063 25.5489C67.9997 24.1089 71.8397 22.4556 76.4263 20.5889V9.86894C75.573 9.65561 74.5597 9.52227 73.3863 9.46894C72.2663 9.36227 70.773 9.30894 68.9063 9.30894C66.5063 9.30894 63.893 9.44227 61.0663 9.70894C58.293 9.9756 55.6263 10.3489 53.0663 10.8289L51.7063 3.06894C54.2663 2.3756 57.0397 1.84227 60.0263 1.46894C63.0663 1.0956 66.0797 0.908936 69.0663 0.908936C75.253 0.908936 79.7863 1.9756 82.6663 4.10894C85.5463 6.18894 86.9863 9.4956 86.9863 14.0289C86.9863 16.0556 86.7997 17.8423 86.4263 19.3889C86.053 20.9356 85.3597 22.3489 84.3463 23.6289C83.333 24.9089 81.8397 26.1623 79.8663 27.3889C77.893 28.6156 75.2797 29.9756 72.0263 31.4689C68.773 32.9623 64.7463 34.6956 59.9463 36.6689V43.9489H86.1063V52.1089H50.5863Z" fill="black"/>
<path d="M10.1201 43.0364L31.8388 5.41864L38.2234 9.10482L16.5048 46.7226L10.1201 43.0364Z" fill="black"/>
</svg>
