<svg width="85" height="54" viewBox="0 0 85 54" fill="none" xmlns="http://www.w3.org/2000/svg">
<path d="M0.224609 27.1489C0.224609 21.7089 0.517943 17.2823 1.10461 13.8689C1.69128 10.4023 2.73128 7.7356 4.22461 5.86894C5.77128 4.00227 7.90461 2.72227 10.6246 2.02894C13.3446 1.28227 16.8913 0.908936 21.2646 0.908936C25.5846 0.908936 29.1046 1.28227 31.8246 2.02894C34.5979 2.72227 36.7313 4.00227 38.2246 5.86894C39.7179 7.68227 40.7579 10.3223 41.3446 13.7889C41.9313 17.2556 42.2246 21.7089 42.2246 27.1489C42.2246 31.5756 42.0379 35.3356 41.6646 38.4289C41.3446 41.4689 40.7579 43.9756 39.9046 45.9489C39.0513 47.8689 37.8246 49.3889 36.2246 50.5089C34.6779 51.5756 32.6779 52.2956 30.2246 52.6689C27.7713 53.0956 24.7846 53.3089 21.2646 53.3089C17.7446 53.3089 14.7579 53.0956 12.3046 52.6689C9.85128 52.2423 7.82461 51.4956 6.22461 50.4289C4.67794 49.3623 3.45128 47.8423 2.54461 45.8689C1.69128 43.8956 1.07794 41.3889 0.704609 38.3489C0.384609 35.2556 0.224609 31.5223 0.224609 27.1489ZM10.7846 9.30894V40.6689C10.7846 42.3756 11.2113 43.5223 12.0646 44.1089C12.9713 44.6423 14.8379 44.9089 17.6646 44.9089H31.6646V13.5489C31.6646 11.8423 31.1579 10.7223 30.1446 10.1889C29.1313 9.60227 27.1846 9.30894 24.3046 9.30894H10.7846Z" fill="black"/>
<path d="M65.1659 53.3089C62.2325 53.3089 59.3259 53.1223 56.4459 52.7489C53.6192 52.3756 51.0059 51.8156 48.6059 51.0689L49.8859 43.3889C52.0725 43.8689 54.5259 44.2423 57.2459 44.5089C59.9659 44.7756 62.5525 44.9089 65.0059 44.9089C69.1125 44.9089 71.9392 44.7223 73.4859 44.3489V31.3089L59.6459 29.4689V24.2689L73.4859 21.9489V9.86894C72.0459 9.4956 69.6725 9.30894 66.3659 9.30894C63.9659 9.30894 61.4059 9.44227 58.6859 9.70894C55.9659 9.9756 53.5125 10.3489 51.3259 10.8289L50.1259 3.06894C52.5792 2.3756 55.2725 1.84227 58.2059 1.46894C61.1392 1.0956 64.0992 0.908936 67.0859 0.908936C72.7925 0.908936 77.0325 2.02894 79.8059 4.26894C82.6325 6.4556 84.0459 9.78894 84.0459 14.2689C84.0459 17.0956 83.4859 19.6023 82.3659 21.7889C81.2459 23.9223 79.5925 25.5489 77.4059 26.6689V27.0689C79.6992 28.1889 81.3792 29.7356 82.4459 31.7089C83.5125 33.6289 84.0459 36.0823 84.0459 39.0689C84.0459 42.5356 83.4059 45.3089 82.1259 47.3889C80.8992 49.4689 78.8992 50.9889 76.1259 51.9489C73.4059 52.8556 69.7525 53.3089 65.1659 53.3089Z" fill="black"/>
<path d="M9.22535 43.0364L30.944 5.41864L37.3287 9.10482L15.61 46.7226L9.22535 43.0364Z" fill="black"/>
</svg>
