<svg width="290" height="71" viewBox="0 0 290 71" fill="none" xmlns="http://www.w3.org/2000/svg">
<path d="M43.4922 70L39.9922 56.2H19.6922L16.3922 70H0.792188L19.1922 1.2H40.9922L59.2922 70H43.4922ZM30.0922 15.2H29.4922L22.7922 43.4H36.8922L30.0922 15.2ZM66.5484 1.2H95.8484C101.982 1.2 106.548 2.63333 109.548 5.5C112.615 8.36666 114.148 12.7 114.148 18.5C114.148 23.3667 113.282 27.0667 111.548 29.6C109.815 32.1333 107.115 33.8333 103.448 34.7V35.1C107.448 36.0333 110.315 37.7333 112.048 40.2C113.848 42.6667 114.748 46.5 114.748 51.7C114.748 57.7 113.282 62.2667 110.348 65.4C107.415 68.4667 102.582 70 95.8484 70H66.5484V1.2ZM90.8484 28.9C92.9818 28.9 94.5818 28.7 95.6484 28.3C96.7151 27.9 97.4484 27.2 97.8484 26.2C98.2484 25.1333 98.4484 23.5667 98.4484 21.5C98.4484 19.3 98.2484 17.7 97.8484 16.7C97.5151 15.7 96.8151 15.0333 95.7484 14.7C94.7484 14.3 93.1151 14.1 90.8484 14.1H81.9484V28.9H90.8484ZM91.2484 57.1C93.5151 57.1 95.1484 56.9 96.1484 56.5C97.2151 56.1 97.9484 55.4 98.3484 54.4C98.7484 53.3333 98.9484 51.6667 98.9484 49.4C98.9484 47.1333 98.7484 45.4667 98.3484 44.4C97.9484 43.3333 97.2151 42.6 96.1484 42.2C95.0818 41.8 93.4484 41.6 91.2484 41.6H81.9484V57.1H91.2484ZM149.538 70.8C141.204 70.8 135.238 69.8 131.638 67.8C128.104 65.7333 125.871 62.4667 124.938 58C124.071 53.4667 123.638 46 123.638 35.6C123.638 25.2 124.071 17.7667 124.938 13.3C125.871 8.76666 128.104 5.5 131.638 3.5C135.238 1.43333 141.204 0.399996 149.538 0.399996C157.938 0.399996 163.904 1.43333 167.438 3.5C171.038 5.5 173.271 8.73333 174.138 13.2C175.004 17.6667 175.437 25.1333 175.437 35.6C175.437 46.0667 175.004 53.5333 174.138 58C173.271 62.4667 171.038 65.7333 167.438 67.8C163.904 69.8 157.938 70.8 149.538 70.8ZM149.538 57.9C153.138 57.9 155.538 57.5333 156.738 56.8C158.004 56.0667 158.804 54.3333 159.138 51.6C159.471 48.8667 159.638 43.5333 159.638 35.6C159.638 27.6667 159.471 22.3333 159.138 19.6C158.804 16.8667 158.004 15.1333 156.738 14.4C155.538 13.6667 153.138 13.3 149.538 13.3C145.938 13.3 143.504 13.6667 142.238 14.4C141.038 15.1333 140.271 16.8667 139.938 19.6C139.604 22.3333 139.438 27.6667 139.438 35.6C139.438 43.5333 139.604 48.8667 139.938 51.6C140.271 54.3333 141.038 56.0667 142.238 56.8C143.504 57.5333 145.938 57.9 149.538 57.9ZM234.468 1.2V39.2C234.468 48.4 234.001 55.0667 233.068 59.2C232.135 63.3333 230.001 66.3 226.668 68.1C223.335 69.9 217.868 70.8 210.268 70.8C202.668 70.8 197.201 69.9 193.868 68.1C190.535 66.3 188.368 63.3333 187.368 59.2C186.435 55 185.968 48.3333 185.968 39.2V1.2H201.568V43.3C201.568 48.1667 201.701 51.5333 201.968 53.4C202.301 55.2667 203.035 56.5 204.168 57.1C205.301 57.7 207.335 58 210.268 58C213.201 58 215.201 57.7 216.268 57.1C217.401 56.5 218.101 55.3 218.368 53.5C218.701 51.6333 218.868 48.2333 218.868 43.3V1.2H234.468ZM257.824 70V14.6H241.624V1.2H289.724V14.6H273.424V70H257.824Z" fill="white"/>
</svg>
