<svg width="292" height="73" viewBox="0 0 292 73" fill="none" xmlns="http://www.w3.org/2000/svg">
<mask id="path-1-outside-1_720_6" maskUnits="userSpaceOnUse" x="0" y="0" width="292" height="73" fill="black">
<rect fill="white" width="292" height="73"/>
<path d="M44.4922 71L40.9922 57.2H20.6922L17.3922 71H1.79219L20.1922 2.2H41.9922L60.2922 71H44.4922ZM31.0922 16.2H30.4922L23.7922 44.4H37.8922L31.0922 16.2ZM67.5484 2.2H96.8484C102.982 2.2 107.548 3.63333 110.548 6.5C113.615 9.36666 115.148 13.7 115.148 19.5C115.148 24.3667 114.282 28.0667 112.548 30.6C110.815 33.1333 108.115 34.8333 104.448 35.7V36.1C108.448 37.0333 111.315 38.7333 113.048 41.2C114.848 43.6667 115.748 47.5 115.748 52.7C115.748 58.7 114.282 63.2667 111.348 66.4C108.415 69.4667 103.582 71 96.8484 71H67.5484V2.2ZM91.8484 29.9C93.9818 29.9 95.5818 29.7 96.6484 29.3C97.7151 28.9 98.4484 28.2 98.8484 27.2C99.2484 26.1333 99.4484 24.5667 99.4484 22.5C99.4484 20.3 99.2484 18.7 98.8484 17.7C98.5151 16.7 97.8151 16.0333 96.7484 15.7C95.7484 15.3 94.1151 15.1 91.8484 15.1H82.9484V29.9H91.8484ZM92.2484 58.1C94.5151 58.1 96.1484 57.9 97.1484 57.5C98.2151 57.1 98.9484 56.4 99.3484 55.4C99.7484 54.3333 99.9484 52.6667 99.9484 50.4C99.9484 48.1333 99.7484 46.4667 99.3484 45.4C98.9484 44.3333 98.2151 43.6 97.1484 43.2C96.0818 42.8 94.4484 42.6 92.2484 42.6H82.9484V58.1H92.2484ZM150.538 71.8C142.204 71.8 136.238 70.8 132.638 68.8C129.104 66.7333 126.871 63.4667 125.938 59C125.071 54.4667 124.638 47 124.638 36.6C124.638 26.2 125.071 18.7667 125.938 14.3C126.871 9.76666 129.104 6.5 132.638 4.5C136.238 2.43333 142.204 1.4 150.538 1.4C158.938 1.4 164.904 2.43333 168.438 4.5C172.038 6.5 174.271 9.73333 175.138 14.2C176.004 18.6667 176.437 26.1333 176.437 36.6C176.437 47.0667 176.004 54.5333 175.138 59C174.271 63.4667 172.038 66.7333 168.438 68.8C164.904 70.8 158.938 71.8 150.538 71.8ZM150.538 58.9C154.138 58.9 156.538 58.5333 157.738 57.8C159.004 57.0667 159.804 55.3333 160.138 52.6C160.471 49.8667 160.638 44.5333 160.638 36.6C160.638 28.6667 160.471 23.3333 160.138 20.6C159.804 17.8667 159.004 16.1333 157.738 15.4C156.538 14.6667 154.138 14.3 150.538 14.3C146.938 14.3 144.504 14.6667 143.238 15.4C142.038 16.1333 141.271 17.8667 140.938 20.6C140.604 23.3333 140.438 28.6667 140.438 36.6C140.438 44.5333 140.604 49.8667 140.938 52.6C141.271 55.3333 142.038 57.0667 143.238 57.8C144.504 58.5333 146.938 58.9 150.538 58.9ZM235.468 2.2V40.2C235.468 49.4 235.001 56.0667 234.068 60.2C233.135 64.3333 231.001 67.3 227.668 69.1C224.335 70.9 218.868 71.8 211.268 71.8C203.668 71.8 198.201 70.9 194.868 69.1C191.535 67.3 189.368 64.3333 188.368 60.2C187.435 56 186.968 49.3333 186.968 40.2V2.2H202.568V44.3C202.568 49.1667 202.701 52.5333 202.968 54.4C203.301 56.2667 204.035 57.5 205.168 58.1C206.301 58.7 208.335 59 211.268 59C214.201 59 216.201 58.7 217.268 58.1C218.401 57.5 219.101 56.3 219.368 54.5C219.701 52.6333 219.868 49.2333 219.868 44.3V2.2H235.468ZM258.824 71V15.6H242.624V2.2H290.724V15.6H274.424V71H258.824Z"/>
</mask>
<path d="M44.4922 71L43.5229 71.2458L43.7142 72H44.4922V71ZM40.9922 57.2L41.9615 56.9542L41.7702 56.2H40.9922V57.2ZM20.6922 57.2V56.2H19.9031L19.7196 56.9674L20.6922 57.2ZM17.3922 71V72H18.1813L18.3648 71.2326L17.3922 71ZM1.79219 71L0.826139 70.7416L0.489601 72H1.79219V71ZM20.1922 2.2V1.2H19.4245L19.2261 1.94164L20.1922 2.2ZM41.9922 2.2L42.9586 1.94295L42.761 1.2H41.9922V2.2ZM60.2922 71V72H61.5929L61.2586 70.743L60.2922 71ZM31.0922 16.2L32.0643 15.9656L31.8797 15.2H31.0922V16.2ZM30.4922 16.2V15.2H29.7019L29.5193 15.9688L30.4922 16.2ZM23.7922 44.4L22.8193 44.1688L22.5268 45.4H23.7922V44.4ZM37.8922 44.4V45.4H39.162L38.8643 44.1656L37.8922 44.4ZM45.4615 70.7542L41.9615 56.9542L40.0229 57.4458L43.5229 71.2458L45.4615 70.7542ZM40.9922 56.2H20.6922V58.2H40.9922V56.2ZM19.7196 56.9674L16.4196 70.7674L18.3648 71.2326L21.6648 57.4326L19.7196 56.9674ZM17.3922 70H1.79219V72H17.3922V70ZM2.75824 71.2584L21.1582 2.45836L19.2261 1.94164L0.826139 70.7416L2.75824 71.2584ZM20.1922 3.2H41.9922V1.2H20.1922V3.2ZM41.0258 2.45705L59.3258 71.257L61.2586 70.743L42.9586 1.94295L41.0258 2.45705ZM60.2922 70H44.4922V72H60.2922V70ZM31.0922 15.2H30.4922V17.2H31.0922V15.2ZM29.5193 15.9688L22.8193 44.1688L24.7651 44.6312L31.4651 16.4312L29.5193 15.9688ZM23.7922 45.4H37.8922V43.4H23.7922V45.4ZM38.8643 44.1656L32.0643 15.9656L30.1201 16.4344L36.9201 44.6344L38.8643 44.1656ZM67.5484 2.2V1.2H66.5484V2.2H67.5484ZM110.548 6.5L109.858 7.22303L109.866 7.23052L110.548 6.5ZM112.548 30.6L111.723 30.0353L112.548 30.6ZM104.448 35.7L104.218 34.7268L103.448 34.9088V35.7H104.448ZM104.448 36.1H103.448V36.8935L104.221 37.0738L104.448 36.1ZM113.048 41.2L112.23 41.7749L112.235 41.7823L112.241 41.7895L113.048 41.2ZM111.348 66.4L112.071 67.0913L112.078 67.0834L111.348 66.4ZM67.5484 71H66.5484V72H67.5484V71ZM96.6484 29.3L96.2973 28.3637L96.6484 29.3ZM98.8484 27.2L99.7769 27.5714L99.781 27.5613L99.7848 27.5511L98.8484 27.2ZM98.8484 17.7L97.8998 18.0162L97.909 18.0441L97.92 18.0714L98.8484 17.7ZM96.7484 15.7L96.377 16.6285L96.4131 16.6429L96.4502 16.6545L96.7484 15.7ZM82.9484 15.1V14.1H81.9484V15.1H82.9484ZM82.9484 29.9H81.9484V30.9H82.9484V29.9ZM97.1484 57.5L96.7973 56.5637L96.7871 56.5675L96.777 56.5715L97.1484 57.5ZM99.3484 55.4L100.277 55.7714L100.281 55.7613L100.285 55.7511L99.3484 55.4ZM99.3484 45.4L100.285 45.0489V45.0489L99.3484 45.4ZM97.1484 43.2L97.4996 42.2637L97.1484 43.2ZM82.9484 42.6V41.6H81.9484V42.6H82.9484ZM82.9484 58.1H81.9484V59.1H82.9484V58.1ZM67.5484 3.2H96.8484V1.2H67.5484V3.2ZM96.8484 3.2C102.846 3.2 107.116 4.60329 109.858 7.22299L111.239 5.77701C107.981 2.66337 103.118 1.2 96.8484 1.2V3.2ZM109.866 7.23052C112.662 9.84472 114.148 13.868 114.148 19.5H116.148C116.148 13.532 114.568 8.8886 111.231 5.76947L109.866 7.23052ZM114.148 19.5C114.148 24.2737 113.294 27.7397 111.723 30.0353L113.374 31.1647C115.27 28.3936 116.148 24.4596 116.148 19.5H114.148ZM111.723 30.0353C110.161 32.3189 107.7 33.9038 104.218 34.7268L104.678 36.6732C108.53 35.7629 111.47 33.9478 113.374 31.1647L111.723 30.0353ZM103.448 35.7V36.1H105.448V35.7H103.448ZM104.221 37.0738C108.069 37.9717 110.682 39.5723 112.23 41.7749L113.867 40.6251C111.948 37.8943 108.828 36.0949 104.676 35.1262L104.221 37.0738ZM112.241 41.7895C113.855 44.0017 114.748 47.578 114.748 52.7H116.748C116.748 47.422 115.842 43.3317 113.856 40.6105L112.241 41.7895ZM114.748 52.7C114.748 58.5477 113.32 62.8313 110.618 65.7166L112.078 67.0834C115.244 63.702 116.748 58.8523 116.748 52.7H114.748ZM110.626 65.7088C107.967 68.4886 103.465 70 96.8484 70V72C103.699 72 108.863 70.4447 112.071 67.0912L110.626 65.7088ZM96.8484 70H67.5484V72H96.8484V70ZM68.5484 71V2.2H66.5484V71H68.5484ZM91.8484 30.9C94.0158 30.9 95.7614 30.7006 96.9996 30.2363L96.2973 28.3637C95.4021 28.6994 93.9477 28.9 91.8484 28.9V30.9ZM96.9996 30.2363C98.3124 29.744 99.2659 28.849 99.7769 27.5714L97.92 26.8286C97.631 27.551 97.1178 28.056 96.2973 28.3637L96.9996 30.2363ZM99.7848 27.5511C100.248 26.3153 100.448 24.6053 100.448 22.5H98.4484C98.4484 24.528 98.2487 25.9513 97.9121 26.8489L99.7848 27.5511ZM100.448 22.5C100.448 20.2775 100.252 18.5155 99.7769 17.3286L97.92 18.0714C98.2452 18.8845 98.4484 20.3225 98.4484 22.5H100.448ZM99.7971 17.3838C99.3552 16.0579 98.3985 15.1679 97.0467 14.7455L96.4502 16.6545C97.2317 16.8987 97.675 17.3421 97.8998 18.0162L99.7971 17.3838ZM97.1198 14.7715C95.9308 14.2959 94.133 14.1 91.8484 14.1V16.1C94.0972 16.1 95.566 16.3041 96.377 16.6285L97.1198 14.7715ZM91.8484 14.1H82.9484V16.1H91.8484V14.1ZM81.9484 15.1V29.9H83.9484V15.1H81.9484ZM82.9484 30.9H91.8484V28.9H82.9484V30.9ZM92.2484 59.1C94.533 59.1 96.3308 58.9041 97.5198 58.4285L96.777 56.5715C95.966 56.8959 94.4972 57.1 92.2484 57.1V59.1ZM97.4996 58.4363C98.8124 57.944 99.7659 57.049 100.277 55.7714L98.42 55.0286C98.131 55.751 97.6178 56.256 96.7973 56.5637L97.4996 58.4363ZM100.285 55.7511C100.751 54.5087 100.948 52.692 100.948 50.4H98.9484C98.9484 52.6414 98.7462 54.1579 98.4121 55.0489L100.285 55.7511ZM100.948 50.4C100.948 48.108 100.751 46.2913 100.285 45.0489L98.4121 45.7511C98.7462 46.6421 98.9484 48.1586 98.9484 50.4H100.948ZM100.285 45.0489C99.7834 43.7118 98.8367 42.7651 97.4996 42.2637L96.7973 44.1363C97.5936 44.4349 98.1135 44.9549 98.4121 45.7511L100.285 45.0489ZM97.4996 42.2637C96.2592 41.7985 94.4781 41.6 92.2484 41.6V43.6C94.4188 43.6 95.9043 43.8015 96.7973 44.1363L97.4996 42.2637ZM92.2484 41.6H82.9484V43.6H92.2484V41.6ZM81.9484 42.6V58.1H83.9484V42.6H81.9484ZM82.9484 59.1H92.2484V57.1H82.9484V59.1ZM132.637 68.8L132.133 69.6632L132.142 69.6688L132.152 69.6742L132.637 68.8ZM125.938 59L124.955 59.1878L124.957 59.1962L124.959 59.2045L125.938 59ZM125.938 14.3L124.958 14.0983L124.956 14.1095L125.938 14.3ZM132.637 4.5L133.13 5.37027L133.135 5.36725L132.637 4.5ZM168.438 4.5L167.933 5.36319L167.942 5.36878L167.952 5.37416L168.438 4.5ZM175.138 14.2L176.119 14.0095V14.0095L175.138 14.2ZM175.138 59L176.119 59.1905L175.138 59ZM168.438 68.8L168.93 69.6703L168.935 69.6673L168.438 68.8ZM157.738 57.8L157.236 56.9346L157.226 56.9405L157.216 56.9467L157.738 57.8ZM160.137 52.6L159.145 52.4789L160.137 52.6ZM160.137 20.6L159.145 20.7211L160.137 20.6ZM157.738 15.4L157.216 16.2533L157.226 16.2595L157.236 16.2654L157.738 15.4ZM143.238 15.4L142.736 14.5346L142.726 14.5405L142.716 14.5467L143.238 15.4ZM140.938 20.6L141.93 20.7211L140.938 20.6ZM140.938 52.6L141.93 52.4789L140.938 52.6ZM143.238 57.8L142.716 58.6533L142.726 58.6595L142.736 58.6654L143.238 57.8ZM150.538 70.8C142.233 70.8 136.487 69.7947 133.123 67.9258L132.152 69.6742C135.988 71.8053 142.175 72.8 150.538 72.8V70.8ZM133.142 67.9368C129.883 66.0301 127.799 63.0208 126.916 58.7955L124.959 59.2045C125.942 63.9125 128.326 67.4366 132.133 69.6632L133.142 67.9368ZM126.92 58.8122C126.072 54.3795 125.637 46.9952 125.637 36.6H123.637C123.637 47.0048 124.069 54.5538 124.955 59.1878L126.92 58.8122ZM125.637 36.6C125.637 26.2037 126.072 18.8546 126.919 14.4905L124.956 14.1095C124.069 18.6787 123.637 26.1963 123.637 36.6H125.637ZM126.917 14.5016C127.801 10.207 129.885 7.20736 133.13 5.37025L132.145 3.62974C128.324 5.79263 125.941 9.32631 124.958 14.0983L126.917 14.5016ZM133.135 5.36725C136.495 3.43847 142.236 2.4 150.538 2.4V0.399996C142.173 0.399996 135.98 1.42819 132.14 3.63274L133.135 5.36725ZM150.538 2.4C158.911 2.4 164.644 3.43982 167.933 5.36319L168.942 3.63681C165.164 1.42684 158.964 0.399996 150.538 0.399996V2.4ZM167.952 5.37416C171.265 7.21455 173.339 10.1794 174.156 14.3905L176.119 14.0095C175.203 9.28722 172.81 5.78545 168.923 3.62584L167.952 5.37416ZM174.156 14.3905C175.003 18.7544 175.438 26.1366 175.438 36.6H177.438C177.438 26.1301 177.006 18.5789 176.119 14.0095L174.156 14.3905ZM175.438 36.6C175.438 47.0634 175.003 54.4456 174.156 58.8095L176.119 59.1905C177.006 54.6211 177.438 47.0699 177.438 36.6H175.438ZM174.156 58.8095C173.338 63.0219 171.262 66.0257 167.94 67.9327L168.935 69.6673C172.813 67.441 175.203 63.9114 176.119 59.1905L174.156 58.8095ZM167.945 67.9297C164.652 69.7934 158.913 70.8 150.538 70.8V72.8C158.962 72.8 165.156 71.8066 168.93 69.6703L167.945 67.9297ZM150.538 59.9C152.366 59.9 153.921 59.8072 155.189 59.6135C156.438 59.4226 157.492 59.1221 158.259 58.6533L157.216 56.9467C156.783 57.2113 156.037 57.4607 154.886 57.6365C153.754 57.8095 152.309 57.9 150.538 57.9V59.9ZM158.239 58.6654C159.942 57.6795 160.79 55.5092 161.13 52.7211L159.145 52.4789C158.818 55.1575 158.067 56.4539 157.236 56.9346L158.239 58.6654ZM161.13 52.7211C161.472 49.918 161.637 44.525 161.637 36.6H159.637C159.637 44.5417 159.47 49.8153 159.145 52.4789L161.13 52.7211ZM161.637 36.6C161.637 28.675 161.472 23.282 161.13 20.4789L159.145 20.7211C159.47 23.3846 159.637 28.6583 159.637 36.6H161.637ZM161.13 20.4789C160.79 17.6908 159.942 15.5205 158.239 14.5346L157.236 16.2654C158.067 16.7461 158.818 18.0425 159.145 20.7211L161.13 20.4789ZM158.259 14.5467C157.492 14.0779 156.438 13.7774 155.189 13.5865C153.921 13.3928 152.366 13.3 150.538 13.3V15.3C152.309 15.3 153.754 15.3905 154.886 15.5635C156.037 15.7393 156.783 15.9887 157.216 16.2533L158.259 14.5467ZM150.538 13.3C148.708 13.3 147.146 13.3929 145.863 13.5862C144.596 13.7772 143.528 14.0764 142.736 14.5346L143.739 16.2654C144.214 15.9902 144.996 15.7395 146.161 15.5638C147.312 15.3905 148.767 15.3 150.538 15.3V13.3ZM142.716 14.5467C141.091 15.5396 140.283 17.7065 139.945 20.4789L141.93 20.7211C142.259 18.0268 142.984 16.727 143.759 16.2533L142.716 14.5467ZM139.945 20.4789C139.603 23.282 139.438 28.675 139.438 36.6H141.438C141.438 28.6583 141.605 23.3846 141.93 20.7211L139.945 20.4789ZM139.438 36.6C139.438 44.525 139.603 49.918 139.945 52.7211L141.93 52.4789C141.605 49.8153 141.438 44.5417 141.438 36.6H139.438ZM139.945 52.7211C140.283 55.4935 141.091 57.6604 142.716 58.6533L143.759 56.9467C142.984 56.4729 142.259 55.1731 141.93 52.4789L139.945 52.7211ZM142.736 58.6654C143.528 59.1236 144.596 59.4228 145.863 59.6138C147.146 59.8071 148.708 59.9 150.538 59.9V57.9C148.767 57.9 147.312 57.8095 146.161 57.6362C144.996 57.4605 144.214 57.2098 143.739 56.9346L142.736 58.6654ZM235.468 2.2H236.468V1.2H235.468V2.2ZM227.668 69.1L228.143 69.9799L227.668 69.1ZM194.868 69.1L195.343 68.2201L194.868 69.1ZM188.368 60.2L187.392 60.4169L187.394 60.4261L187.396 60.4352L188.368 60.2ZM186.968 2.2V1.2H185.968V2.2H186.968ZM202.568 2.2H203.568V1.2H202.568V2.2ZM202.968 54.4L201.978 54.5414L201.98 54.5587L201.984 54.5758L202.968 54.4ZM205.168 58.1L205.636 57.2162V57.2162L205.168 58.1ZM217.268 58.1L216.8 57.2162L216.789 57.2222L216.778 57.2284L217.268 58.1ZM219.368 54.5L218.384 54.3242L218.381 54.3388L218.379 54.3535L219.368 54.5ZM219.868 2.2V1.2H218.868V2.2H219.868ZM234.468 2.2V40.2H236.468V2.2H234.468ZM234.468 40.2C234.468 49.3913 234 55.9626 233.093 59.9797L235.043 60.4203C236.003 56.1707 236.468 49.4087 236.468 40.2H234.468ZM233.093 59.9797C232.214 63.8686 230.24 66.5746 227.193 68.2201L228.143 69.9799C231.763 68.0254 234.055 64.7981 235.043 60.4203L233.093 59.9797ZM227.193 68.2201C224.09 69.8954 218.837 70.8 211.268 70.8V72.8C218.899 72.8 224.579 71.9046 228.143 69.9799L227.193 68.2201ZM211.268 70.8C203.699 70.8 198.446 69.8954 195.343 68.2201L194.393 69.9799C197.957 71.9046 203.637 72.8 211.268 72.8V70.8ZM195.343 68.2201C192.291 66.5722 190.282 63.8601 189.34 59.9648L187.396 60.4352C188.454 64.8066 190.778 68.0278 194.393 69.9799L195.343 68.2201ZM189.344 59.9831C188.436 55.8967 187.968 49.3228 187.968 40.2H185.968C185.968 49.3439 186.433 56.1033 187.392 60.4169L189.344 59.9831ZM187.968 40.2V2.2H185.968V40.2H187.968ZM186.968 3.2H202.568V1.2H186.968V3.2ZM201.568 2.2V44.3H203.568V2.2H201.568ZM201.568 44.3C201.568 49.1628 201.7 52.5956 201.978 54.5414L203.958 54.2586C203.703 52.4711 203.568 49.1705 203.568 44.3H201.568ZM201.984 54.5758C202.344 56.5953 203.184 58.181 204.7 58.9838L205.636 57.2162C204.885 56.819 204.258 55.938 203.952 54.2242L201.984 54.5758ZM204.7 58.9838C206.072 59.7102 208.331 60 211.268 60V58C208.339 58 206.53 57.6898 205.636 57.2162L204.7 58.9838ZM211.268 60C212.764 60 214.051 59.9238 215.116 59.7639C216.168 59.6061 217.072 59.3575 217.758 58.9716L216.778 57.2284C216.397 57.4425 215.767 57.6439 214.82 57.7861C213.885 57.9262 212.705 58 211.268 58V60ZM217.736 58.9838C219.256 58.1792 220.065 56.621 220.357 54.6465L218.379 54.3535C218.138 55.979 217.547 56.8208 216.8 57.2162L217.736 58.9838ZM220.352 54.6758C220.703 52.7108 220.868 49.2279 220.868 44.3H218.868C218.868 49.2388 218.699 52.5559 218.384 54.3242L220.352 54.6758ZM220.868 44.3V2.2H218.868V44.3H220.868ZM219.868 3.2H235.468V1.2H219.868V3.2ZM258.824 71H257.824V72H258.824V71ZM258.824 15.6H259.824V14.6H258.824V15.6ZM242.624 15.6H241.624V16.6H242.624V15.6ZM242.624 2.2V1.2H241.624V2.2H242.624ZM290.724 2.2H291.724V1.2H290.724V2.2ZM290.724 15.6V16.6H291.724V15.6H290.724ZM274.424 15.6V14.6H273.424V15.6H274.424ZM274.424 71V72H275.424V71H274.424ZM259.824 71V15.6H257.824V71H259.824ZM258.824 14.6H242.624V16.6H258.824V14.6ZM243.624 15.6V2.2H241.624V15.6H243.624ZM242.624 3.2H290.724V1.2H242.624V3.2ZM289.724 2.2V15.6H291.724V2.2H289.724ZM290.724 14.6H274.424V16.6H290.724V14.6ZM273.424 15.6V71H275.424V15.6H273.424ZM274.424 70H258.824V72H274.424V70Z" fill="white" style="mix-blend-mode:exclusion" mask="url(#path-1-outside-1_720_6)"/>
</svg>
