<svg width="1920" height="980" viewBox="0 0 1920 980" fill="none" xmlns="http://www.w3.org/2000/svg">
<path d="M2.5 -7.62939e-06L2.50004 980M126.5 -7.86781e-06L126.5 980M64.5 -7.62939e-06L64.5 980M498.5 -7.86781e-06L498.5 980M436.5 -7.86781e-06L436.5 980M374.5 -7.86781e-06L374.5 980M312.5 -7.86781e-06L312.5 980M250.5 -7.62939e-06L250.5 980M188.5 -7.86781e-06L188.5 980M560.5 -7.86781e-06V980M684.5 -7.86781e-06V980M622.5 -7.86781e-06V980M1056.5 -7.86781e-06V980M994.5 -7.86781e-06V980M1118.5 -7.86781e-06V980M1180.5 -7.86781e-06V980M932.5 -7.86781e-06V980M870.5 -7.86781e-06V980M808.5 -7.86781e-06V980M746.5 -7.86781e-06V980M1552.5 -7.86781e-06V980M1490.5 -7.86781e-06V980M1614.5 -7.86781e-06V980M1676.5 -7.86781e-06V980M1800.5 -7.86781e-06V980M1738.5 -7.86781e-06V980M1862.5 -7.86781e-06V980M1924.5 -7.86781e-06V980M1428.5 -7.86781e-06V980M1366.5 -7.86781e-06V980M1304.5 -7.86781e-06V980M1242.5 -7.86781e-06V980M0 865.5L1920 865.5M0 927.5L1920 927.5M0 803.5L1920 803.5M0 741.5L1920 741.5M0 989.5L1920 989.5M0 369.5L1920 369.5M0 431.5L1920 431.5M0 307.5L1920 307.5M0 245.5L1920 245.5M0 121.5L1920 121.5M0 183.5L1920 183.5M0 59.5L1920 59.4999M0 -2.50001L1920 -2.50006M0 493.5L1920 493.5M0 555.5L1920 555.5M0 617.5L1920 617.5M0 679.5L1920 679.5" stroke="url(#paint0_linear_478_219)"/>
<defs>
<linearGradient id="paint0_linear_478_219" x1="79" y1="493" x2="1803.5" y2="493" gradientUnits="userSpaceOnUse">
<stop stop-color="#343434"/>
<stop offset="1" stop-color="#131212" stop-opacity="0"/>
</linearGradient>
</defs>
</svg>
