<svg width="762" height="140" viewBox="0 0 762 140" fill="none" xmlns="http://www.w3.org/2000/svg">
<path d="M5.4 69V0.199998H45V13.1H20.9V29.6H42.1V42.6H20.9V69H5.4ZM54.4234 69V0.199998H95.8234V13.1H69.9234V27.8H92.1234V40.7H69.9234V56.1H95.8234V69H54.4234ZM143.965 69L140.465 55.2H120.165L116.865 69H101.265L119.665 0.199998H141.465L159.765 69H143.965ZM130.565 14.2H129.965L123.265 42.4H137.365L130.565 14.2ZM174.215 69V13.6H158.015V0.199998H206.115V13.6H189.815V69H174.215ZM261.698 0.199998V38.2C261.698 47.4 261.232 54.0667 260.298 58.2C259.365 62.3333 257.232 65.3 253.898 67.1C250.565 68.9 245.098 69.8 237.498 69.8C229.898 69.8 224.432 68.9 221.098 67.1C217.765 65.3 215.598 62.3333 214.598 58.2C213.665 54 213.198 47.3333 213.198 38.2V0.199998H228.798V42.3C228.798 47.1667 228.932 50.5333 229.198 52.4C229.532 54.2667 230.265 55.5 231.398 56.1C232.532 56.7 234.565 57 237.498 57C240.432 57 242.432 56.7 243.498 56.1C244.632 55.5 245.332 54.3 245.598 52.5C245.932 50.6333 246.098 47.2333 246.098 42.3V0.199998H261.698ZM307.455 69L299.455 44.9H289.455V69H273.955V0.199998H302.255C307.921 0.199998 312.188 1.06666 315.055 2.79999C317.921 4.46666 319.821 6.86666 320.755 10C321.755 13.1333 322.255 17.3 322.255 22.5C322.255 27.3667 321.721 31.5333 320.655 35C319.588 38.4 317.421 40.9 314.155 42.5L323.755 69H307.455ZM297.255 32.1C300.188 32.1 302.255 31.8667 303.455 31.4C304.721 30.9333 305.555 30.1 305.955 28.9C306.355 27.6333 306.555 25.5333 306.555 22.6C306.555 19.6 306.355 17.5 305.955 16.3C305.621 15.0333 304.821 14.2 303.555 13.8C302.355 13.3333 300.288 13.1 297.355 13.1H289.455V32.1H297.255ZM333.134 69V0.199998H374.534V13.1H348.634V27.8H370.834V40.7H348.634V56.1H374.534V69H333.134ZM385.576 0.199998H407.176C415.842 0.199998 422.009 1.2 425.676 3.19999C429.409 5.2 431.709 8.4 432.576 12.8C433.509 17.2 433.976 24.4667 433.976 34.6C433.976 44.7333 433.509 52 432.576 56.4C431.709 60.8 429.409 64 425.676 66C422.009 68 415.842 69 407.176 69H385.576V0.199998ZM406.776 56.1C410.909 56.1 413.676 55.7667 415.076 55.1C416.476 54.4333 417.342 52.8 417.676 50.2C418.076 47.5333 418.276 42.3333 418.276 34.6C418.276 26.8667 418.076 21.7 417.676 19.1C417.276 16.4333 416.376 14.7667 414.976 14.1C413.642 13.4333 410.909 13.1 406.776 13.1H401.076V56.1H406.776ZM513.823 69L505.023 23.9H504.423L495.623 69H475.223L462.223 0.199998H477.823L486.123 51.7H486.723L496.523 0.199998H513.423L523.423 51.7H524.023L531.823 0.199998H547.323L534.223 69H513.823ZM577.256 69.8C568.923 69.8 562.956 68.8 559.356 66.8C555.823 64.7333 553.59 61.4667 552.656 57C551.79 52.4667 551.356 45 551.356 34.6C551.356 24.2 551.79 16.7667 552.656 12.3C553.59 7.76666 555.823 4.5 559.356 2.5C562.956 0.43333 568.923 -0.600004 577.256 -0.600004C585.656 -0.600004 591.623 0.43333 595.156 2.5C598.756 4.5 600.99 7.73333 601.856 12.2C602.723 16.6667 603.156 24.1333 603.156 34.6C603.156 45.0667 602.723 52.5333 601.856 57C600.99 61.4667 598.756 64.7333 595.156 66.8C591.623 68.8 585.656 69.8 577.256 69.8ZM577.256 56.9C580.856 56.9 583.256 56.5333 584.456 55.8C585.723 55.0667 586.523 53.3333 586.856 50.6C587.19 47.8667 587.356 42.5333 587.356 34.6C587.356 26.6667 587.19 21.3333 586.856 18.6C586.523 15.8667 585.723 14.1333 584.456 13.4C583.256 12.6667 580.856 12.3 577.256 12.3C573.656 12.3 571.223 12.6667 569.956 13.4C568.756 14.1333 567.99 15.8667 567.656 18.6C567.323 21.3333 567.156 26.6667 567.156 34.6C567.156 42.5333 567.323 47.8667 567.656 50.6C567.99 53.3333 568.756 55.0667 569.956 55.8C571.223 56.5333 573.656 56.9 577.256 56.9ZM647.787 69L639.787 44.9H629.787V69H614.287V0.199998H642.587C648.253 0.199998 652.52 1.06666 655.387 2.79999C658.253 4.46666 660.153 6.86666 661.087 10C662.087 13.1333 662.587 17.3 662.587 22.5C662.587 27.3667 662.053 31.5333 660.987 35C659.92 38.4 657.753 40.9 654.487 42.5L664.087 69H647.787ZM637.587 32.1C640.52 32.1 642.587 31.8667 643.787 31.4C645.053 30.9333 645.887 30.1 646.287 28.9C646.687 27.6333 646.887 25.5333 646.887 22.6C646.887 19.6 646.687 17.5 646.287 16.3C645.953 15.0333 645.153 14.2 643.887 13.8C642.687 13.3333 640.62 13.1 637.687 13.1H629.787V32.1H637.587ZM708.566 69L693.166 40.6H688.966V69H673.466V0.199998H688.966V27.5H693.166L708.866 0.199998H725.566L705.566 33L725.766 69H708.566Z" fill="white"/>
<mask id="path-2-outside-1_957_2" maskUnits="userSpaceOnUse" x="4" y="67" width="724" height="73" fill="black">
<rect fill="white" x="4" y="67" width="724" height="73"/>
<path d="M5.4 138V69.2H45V82.1H20.9V98.6H42.1V111.6H20.9V138H5.4ZM54.4234 138V69.2H95.8234V82.1H69.9234V96.8H92.1234V109.7H69.9234V125.1H95.8234V138H54.4234ZM143.965 138L140.465 124.2H120.165L116.865 138H101.265L119.665 69.2H141.465L159.765 138H143.965ZM130.565 83.2H129.965L123.265 111.4H137.365L130.565 83.2ZM174.215 138V82.6H158.015V69.2H206.115V82.6H189.815V138H174.215ZM261.698 69.2V107.2C261.698 116.4 261.232 123.067 260.298 127.2C259.365 131.333 257.232 134.3 253.898 136.1C250.565 137.9 245.098 138.8 237.498 138.8C229.898 138.8 224.432 137.9 221.098 136.1C217.765 134.3 215.598 131.333 214.598 127.2C213.665 123 213.198 116.333 213.198 107.2V69.2H228.798V111.3C228.798 116.167 228.932 119.533 229.198 121.4C229.532 123.267 230.265 124.5 231.398 125.1C232.532 125.7 234.565 126 237.498 126C240.432 126 242.432 125.7 243.498 125.1C244.632 124.5 245.332 123.3 245.598 121.5C245.932 119.633 246.098 116.233 246.098 111.3V69.2H261.698ZM307.455 138L299.455 113.9H289.455V138H273.955V69.2H302.255C307.921 69.2 312.188 70.0667 315.055 71.8C317.921 73.4667 319.821 75.8667 320.755 79C321.755 82.1333 322.255 86.3 322.255 91.5C322.255 96.3667 321.721 100.533 320.655 104C319.588 107.4 317.421 109.9 314.155 111.5L323.755 138H307.455ZM297.255 101.1C300.188 101.1 302.255 100.867 303.455 100.4C304.721 99.9333 305.555 99.1 305.955 97.9C306.355 96.6333 306.555 94.5333 306.555 91.6C306.555 88.6 306.355 86.5 305.955 85.3C305.621 84.0333 304.821 83.2 303.555 82.8C302.355 82.3333 300.288 82.1 297.355 82.1H289.455V101.1H297.255ZM333.134 138V69.2H374.534V82.1H348.634V96.8H370.834V109.7H348.634V125.1H374.534V138H333.134ZM385.576 69.2H407.176C415.842 69.2 422.009 70.2 425.676 72.2C429.409 74.2 431.709 77.4 432.576 81.8C433.509 86.2 433.976 93.4667 433.976 103.6C433.976 113.733 433.509 121 432.576 125.4C431.709 129.8 429.409 133 425.676 135C422.009 137 415.842 138 407.176 138H385.576V69.2ZM406.776 125.1C410.909 125.1 413.676 124.767 415.076 124.1C416.476 123.433 417.342 121.8 417.676 119.2C418.076 116.533 418.276 111.333 418.276 103.6C418.276 95.8667 418.076 90.7 417.676 88.1C417.276 85.4333 416.376 83.7667 414.976 83.1C413.642 82.4333 410.909 82.1 406.776 82.1H401.076V125.1H406.776ZM513.823 138L505.023 92.9H504.423L495.623 138H475.223L462.223 69.2H477.823L486.123 120.7H486.723L496.523 69.2H513.423L523.423 120.7H524.023L531.823 69.2H547.323L534.223 138H513.823ZM577.256 138.8C568.923 138.8 562.956 137.8 559.356 135.8C555.823 133.733 553.59 130.467 552.656 126C551.79 121.467 551.356 114 551.356 103.6C551.356 93.2 551.79 85.7667 552.656 81.3C553.59 76.7667 555.823 73.5 559.356 71.5C562.956 69.4333 568.923 68.4 577.256 68.4C585.656 68.4 591.623 69.4333 595.156 71.5C598.756 73.5 600.99 76.7333 601.856 81.2C602.723 85.6667 603.156 93.1333 603.156 103.6C603.156 114.067 602.723 121.533 601.856 126C600.99 130.467 598.756 133.733 595.156 135.8C591.623 137.8 585.656 138.8 577.256 138.8ZM577.256 125.9C580.856 125.9 583.256 125.533 584.456 124.8C585.723 124.067 586.523 122.333 586.856 119.6C587.19 116.867 587.356 111.533 587.356 103.6C587.356 95.6667 587.19 90.3333 586.856 87.6C586.523 84.8667 585.723 83.1333 584.456 82.4C583.256 81.6667 580.856 81.3 577.256 81.3C573.656 81.3 571.223 81.6667 569.956 82.4C568.756 83.1333 567.99 84.8667 567.656 87.6C567.323 90.3333 567.156 95.6667 567.156 103.6C567.156 111.533 567.323 116.867 567.656 119.6C567.99 122.333 568.756 124.067 569.956 124.8C571.223 125.533 573.656 125.9 577.256 125.9ZM647.787 138L639.787 113.9H629.787V138H614.287V69.2H642.587C648.253 69.2 652.52 70.0667 655.387 71.8C658.253 73.4667 660.153 75.8667 661.087 79C662.087 82.1333 662.587 86.3 662.587 91.5C662.587 96.3667 662.053 100.533 660.987 104C659.92 107.4 657.753 109.9 654.487 111.5L664.087 138H647.787ZM637.587 101.1C640.52 101.1 642.587 100.867 643.787 100.4C645.053 99.9333 645.887 99.1 646.287 97.9C646.687 96.6333 646.887 94.5333 646.887 91.6C646.887 88.6 646.687 86.5 646.287 85.3C645.953 84.0333 645.153 83.2 643.887 82.8C642.687 82.3333 640.62 82.1 637.687 82.1H629.787V101.1H637.587ZM708.566 138L693.166 109.6H688.966V138H673.466V69.2H688.966V96.5H693.166L708.866 69.2H725.566L705.566 102L725.766 138H708.566Z"/>
</mask>
<path d="M5.4 138H4.4V139H5.4V138ZM5.4 69.2V68.2H4.4V69.2H5.4ZM45 69.2H46V68.2H45V69.2ZM45 82.1V83.1H46V82.1H45ZM20.9 82.1V81.1H19.9V82.1H20.9ZM20.9 98.6H19.9V99.6H20.9V98.6ZM42.1 98.6H43.1V97.6H42.1V98.6ZM42.1 111.6V112.6H43.1V111.6H42.1ZM20.9 111.6V110.6H19.9V111.6H20.9ZM20.9 138V139H21.9V138H20.9ZM6.4 138V69.2H4.4V138H6.4ZM5.4 70.2H45V68.2H5.4V70.2ZM44 69.2V82.1H46V69.2H44ZM45 81.1H20.9V83.1H45V81.1ZM19.9 82.1V98.6H21.9V82.1H19.9ZM20.9 99.6H42.1V97.6H20.9V99.6ZM41.1 98.6V111.6H43.1V98.6H41.1ZM42.1 110.6H20.9V112.6H42.1V110.6ZM19.9 111.6V138H21.9V111.6H19.9ZM20.9 137H5.4V139H20.9V137ZM54.4234 138H53.4234V139H54.4234V138ZM54.4234 69.2V68.2H53.4234V69.2H54.4234ZM95.8234 69.2H96.8234V68.2H95.8234V69.2ZM95.8234 82.1V83.1H96.8234V82.1H95.8234ZM69.9234 82.1V81.1H68.9234V82.1H69.9234ZM69.9234 96.8H68.9234V97.8H69.9234V96.8ZM92.1234 96.8H93.1234V95.8H92.1234V96.8ZM92.1234 109.7V110.7H93.1234V109.7H92.1234ZM69.9234 109.7V108.7H68.9234V109.7H69.9234ZM69.9234 125.1H68.9234V126.1H69.9234V125.1ZM95.8234 125.1H96.8234V124.1H95.8234V125.1ZM95.8234 138V139H96.8234V138H95.8234ZM55.4234 138V69.2H53.4234V138H55.4234ZM54.4234 70.2H95.8234V68.2H54.4234V70.2ZM94.8234 69.2V82.1H96.8234V69.2H94.8234ZM95.8234 81.1H69.9234V83.1H95.8234V81.1ZM68.9234 82.1V96.8H70.9234V82.1H68.9234ZM69.9234 97.8H92.1234V95.8H69.9234V97.8ZM91.1234 96.8V109.7H93.1234V96.8H91.1234ZM92.1234 108.7H69.9234V110.7H92.1234V108.7ZM68.9234 109.7V125.1H70.9234V109.7H68.9234ZM69.9234 126.1H95.8234V124.1H69.9234V126.1ZM94.8234 125.1V138H96.8234V125.1H94.8234ZM95.8234 137H54.4234V139H95.8234V137ZM143.965 138L142.996 138.246L143.187 139H143.965V138ZM140.465 124.2L141.434 123.954L141.243 123.2H140.465V124.2ZM120.165 124.2V123.2H119.376L119.192 123.967L120.165 124.2ZM116.865 138V139H117.654L117.837 138.233L116.865 138ZM101.265 138L100.299 137.742L99.9623 139H101.265V138ZM119.665 69.2V68.2H118.897L118.699 68.9416L119.665 69.2ZM141.465 69.2L142.431 68.9429L142.234 68.2H141.465V69.2ZM159.765 138V139H161.066L160.731 137.743L159.765 138ZM130.565 83.2L131.537 82.9656L131.352 82.2H130.565V83.2ZM129.965 83.2V82.2H129.175L128.992 82.9688L129.965 83.2ZM123.265 111.4L122.292 111.169L121.999 112.4H123.265V111.4ZM137.365 111.4V112.4H138.635L138.337 111.166L137.365 111.4ZM144.934 137.754L141.434 123.954L139.496 124.446L142.996 138.246L144.934 137.754ZM140.465 123.2H120.165V125.2H140.465V123.2ZM119.192 123.967L115.892 137.767L117.837 138.233L121.137 124.433L119.192 123.967ZM116.865 137H101.265V139H116.865V137ZM102.231 138.258L120.631 69.4584L118.699 68.9416L100.299 137.742L102.231 138.258ZM119.665 70.2H141.465V68.2H119.665V70.2ZM140.498 69.457L158.798 138.257L160.731 137.743L142.431 68.9429L140.498 69.457ZM159.765 137H143.965V139H159.765V137ZM130.565 82.2H129.965V84.2H130.565V82.2ZM128.992 82.9688L122.292 111.169L124.238 111.631L130.938 83.4312L128.992 82.9688ZM123.265 112.4H137.365V110.4H123.265V112.4ZM138.337 111.166L131.537 82.9656L129.593 83.4344L136.393 111.634L138.337 111.166ZM174.215 138H173.215V139H174.215V138ZM174.215 82.6H175.215V81.6H174.215V82.6ZM158.015 82.6H157.015V83.6H158.015V82.6ZM158.015 69.2V68.2H157.015V69.2H158.015ZM206.115 69.2H207.115V68.2H206.115V69.2ZM206.115 82.6V83.6H207.115V82.6H206.115ZM189.815 82.6V81.6H188.815V82.6H189.815ZM189.815 138V139H190.815V138H189.815ZM175.215 138V82.6H173.215V138H175.215ZM174.215 81.6H158.015V83.6H174.215V81.6ZM159.015 82.6V69.2H157.015V82.6H159.015ZM158.015 70.2H206.115V68.2H158.015V70.2ZM205.115 69.2V82.6H207.115V69.2H205.115ZM206.115 81.6H189.815V83.6H206.115V81.6ZM188.815 82.6V138H190.815V82.6H188.815ZM189.815 137H174.215V139H189.815V137ZM261.698 69.2H262.698V68.2H261.698V69.2ZM253.898 136.1L254.374 136.98L253.898 136.1ZM221.098 136.1L221.574 135.22L221.574 135.22L221.098 136.1ZM214.598 127.2L213.622 127.417L213.624 127.426L213.626 127.435L214.598 127.2ZM213.198 69.2V68.2H212.198V69.2H213.198ZM228.798 69.2H229.798V68.2H228.798V69.2ZM229.198 121.4L228.208 121.541L228.211 121.559L228.214 121.576L229.198 121.4ZM231.398 125.1L231.866 124.216L231.866 124.216L231.398 125.1ZM243.498 125.1L243.031 124.216L243.019 124.222L243.008 124.228L243.498 125.1ZM245.598 121.5L244.614 121.324L244.611 121.339L244.609 121.353L245.598 121.5ZM246.098 69.2V68.2H245.098V69.2H246.098ZM260.698 69.2V107.2H262.698V69.2H260.698ZM260.698 107.2C260.698 116.391 260.23 122.963 259.323 126.98L261.274 127.42C262.233 123.171 262.698 116.409 262.698 107.2H260.698ZM259.323 126.98C258.445 130.869 256.471 133.575 253.423 135.22L254.374 136.98C257.993 135.025 260.285 131.798 261.274 127.42L259.323 126.98ZM253.423 135.22C250.321 136.895 245.068 137.8 237.498 137.8V139.8C245.129 139.8 250.809 138.905 254.374 136.98L253.423 135.22ZM237.498 137.8C229.929 137.8 224.676 136.895 221.574 135.22L220.623 136.98C224.188 138.905 229.868 139.8 237.498 139.8V137.8ZM221.574 135.22C218.522 133.572 216.513 130.86 215.57 126.965L213.626 127.435C214.684 131.807 217.008 135.028 220.623 136.98L221.574 135.22ZM215.575 126.983C214.667 122.897 214.198 116.323 214.198 107.2H212.198C212.198 116.344 212.664 123.103 213.622 127.417L215.575 126.983ZM214.198 107.2V69.2H212.198V107.2H214.198ZM213.198 70.2H228.798V68.2H213.198V70.2ZM227.798 69.2V111.3H229.798V69.2H227.798ZM227.798 111.3C227.798 116.163 227.931 119.596 228.208 121.541L230.188 121.259C229.933 119.471 229.798 116.171 229.798 111.3H227.798ZM228.214 121.576C228.575 123.595 229.414 125.181 230.931 125.984L231.866 124.216C231.116 123.819 230.489 122.938 230.183 121.224L228.214 121.576ZM230.931 125.984C232.303 126.71 234.561 127 237.498 127V125C234.569 125 232.761 124.69 231.866 124.216L230.931 125.984ZM237.498 127C238.995 127 240.281 126.924 241.347 126.764C242.399 126.606 243.303 126.357 243.989 125.972L243.008 124.228C242.628 124.443 241.998 124.644 241.05 124.786C240.116 124.926 238.935 125 237.498 125V127ZM243.966 125.984C245.486 125.179 246.295 123.621 246.588 121.647L244.609 121.353C244.368 122.979 243.777 123.821 243.031 124.216L243.966 125.984ZM246.583 121.676C246.934 119.711 247.098 116.228 247.098 111.3H245.098C245.098 116.239 244.93 119.556 244.614 121.324L246.583 121.676ZM247.098 111.3V69.2H245.098V111.3H247.098ZM246.098 70.2H261.698V68.2H246.098V70.2ZM307.455 138L306.506 138.315L306.733 139H307.455V138ZM299.455 113.9L300.404 113.585L300.176 112.9H299.455V113.9ZM289.455 113.9V112.9H288.455V113.9H289.455ZM289.455 138V139H290.455V138H289.455ZM273.955 138H272.955V139H273.955V138ZM273.955 69.2V68.2H272.955V69.2H273.955ZM315.055 71.8L314.537 72.6557L314.545 72.6602L314.552 72.6645L315.055 71.8ZM320.755 79L319.796 79.2855L319.799 79.2948L319.802 79.304L320.755 79ZM320.655 104L321.609 104.299L321.61 104.294L320.655 104ZM314.155 111.5L313.715 110.602L312.909 110.997L313.214 111.841L314.155 111.5ZM323.755 138V139H325.181L324.695 137.659L323.755 138ZM303.455 100.4L303.109 99.4617L303.101 99.4647L303.092 99.468L303.455 100.4ZM305.955 97.9L306.903 98.2162L306.906 98.2087L306.908 98.2011L305.955 97.9ZM305.955 85.3L304.988 85.5545L304.996 85.5857L305.006 85.6162L305.955 85.3ZM303.555 82.8L303.192 83.732L303.223 83.7438L303.254 83.7536L303.555 82.8ZM289.455 82.1V81.1H288.455V82.1H289.455ZM289.455 101.1H288.455V102.1H289.455V101.1ZM308.404 137.685L300.404 113.585L298.506 114.215L306.506 138.315L308.404 137.685ZM299.455 112.9H289.455V114.9H299.455V112.9ZM288.455 113.9V138H290.455V113.9H288.455ZM289.455 137H273.955V139H289.455V137ZM274.955 138V69.2H272.955V138H274.955ZM273.955 70.2H302.255V68.2H273.955V70.2ZM302.255 70.2C307.851 70.2 311.9 71.0614 314.537 72.6557L315.572 70.9443C312.476 69.0719 307.992 68.2 302.255 68.2V70.2ZM314.552 72.6645C317.202 74.2052 318.937 76.4 319.796 79.2855L321.713 78.7145C320.706 75.3334 318.641 72.7281 315.557 70.9355L314.552 72.6645ZM319.802 79.304C320.758 82.2991 321.255 86.3506 321.255 91.5H323.255C323.255 86.2494 322.751 81.9676 321.707 78.696L319.802 79.304ZM321.255 91.5C321.255 96.2987 320.728 100.361 319.699 103.706L321.61 104.294C322.715 100.706 323.255 96.4346 323.255 91.5H321.255ZM319.701 103.701C318.718 106.833 316.741 109.12 313.715 110.602L314.595 112.398C318.102 110.68 320.458 107.967 321.609 104.299L319.701 103.701ZM313.214 111.841L322.814 138.341L324.695 137.659L315.095 111.159L313.214 111.841ZM323.755 137H307.455V139H323.755V137ZM297.255 102.1C300.194 102.1 302.427 101.872 303.817 101.332L303.092 99.468C302.082 99.8608 300.182 100.1 297.255 100.1V102.1ZM303.8 101.338C305.33 100.775 306.4 99.726 306.903 98.2162L305.006 97.5838C304.709 98.474 304.113 99.0919 303.109 99.4617L303.8 101.338ZM306.908 98.2011C307.358 96.7765 307.555 94.5426 307.555 91.6H305.555C305.555 94.5241 305.351 96.4901 305.001 97.5989L306.908 98.2011ZM307.555 91.6C307.555 88.5996 307.36 86.353 306.903 84.9838L305.006 85.6162C305.35 86.647 305.555 88.6004 305.555 91.6H307.555ZM306.922 85.0455C306.5 83.4413 305.444 82.348 303.856 81.8464L303.254 83.7536C304.199 84.052 304.743 84.6254 304.988 85.5545L306.922 85.0455ZM303.917 81.868C302.527 81.3275 300.294 81.1 297.355 81.1V83.1C300.282 83.1 302.182 83.3392 303.192 83.732L303.917 81.868ZM297.355 81.1H289.455V83.1H297.355V81.1ZM288.455 82.1V101.1H290.455V82.1H288.455ZM289.455 102.1H297.255V100.1H289.455V102.1ZM333.134 138H332.134V139H333.134V138ZM333.134 69.2V68.2H332.134V69.2H333.134ZM374.534 69.2H375.534V68.2H374.534V69.2ZM374.534 82.1V83.1H375.534V82.1H374.534ZM348.634 82.1V81.1H347.634V82.1H348.634ZM348.634 96.8H347.634V97.8H348.634V96.8ZM370.834 96.8H371.834V95.8H370.834V96.8ZM370.834 109.7V110.7H371.834V109.7H370.834ZM348.634 109.7V108.7H347.634V109.7H348.634ZM348.634 125.1H347.634V126.1H348.634V125.1ZM374.534 125.1H375.534V124.1H374.534V125.1ZM374.534 138V139H375.534V138H374.534ZM334.134 138V69.2H332.134V138H334.134ZM333.134 70.2H374.534V68.2H333.134V70.2ZM373.534 69.2V82.1H375.534V69.2H373.534ZM374.534 81.1H348.634V83.1H374.534V81.1ZM347.634 82.1V96.8H349.634V82.1H347.634ZM348.634 97.8H370.834V95.8H348.634V97.8ZM369.834 96.8V109.7H371.834V96.8H369.834ZM370.834 108.7H348.634V110.7H370.834V108.7ZM347.634 109.7V125.1H349.634V109.7H347.634ZM348.634 126.1H374.534V124.1H348.634V126.1ZM373.534 125.1V138H375.534V125.1H373.534ZM374.534 137H333.134V139H374.534V137ZM385.576 69.2V68.2H384.576V69.2H385.576ZM425.676 72.2L425.197 73.0779L425.204 73.0815L425.676 72.2ZM432.576 81.8L431.595 81.9933L431.596 82.0004L431.598 82.0075L432.576 81.8ZM432.576 125.4L431.598 125.192L431.596 125.2L431.595 125.207L432.576 125.4ZM425.676 135L425.204 134.118L425.197 134.122L425.676 135ZM385.576 138H384.576V139H385.576V138ZM415.076 124.1L414.646 123.197L414.646 123.197L415.076 124.1ZM417.676 119.2L416.687 119.052L416.685 119.062L416.684 119.073L417.676 119.2ZM417.676 88.1L416.687 88.2483L416.687 88.2521L417.676 88.1ZM414.976 83.1L414.529 83.9944L414.537 83.9987L414.546 84.0029L414.976 83.1ZM401.076 82.1V81.1H400.076V82.1H401.076ZM401.076 125.1H400.076V126.1H401.076V125.1ZM385.576 70.2H407.176V68.2H385.576V70.2ZM407.176 70.2C415.819 70.2 421.766 71.2063 425.197 73.0779L426.155 71.3221C422.253 69.1937 415.866 68.2 407.176 68.2V70.2ZM425.204 73.0815C428.655 74.9306 430.782 77.8675 431.595 81.9933L433.557 81.6067C432.636 76.9325 430.163 73.4694 426.148 71.3185L425.204 73.0815ZM431.598 82.0075C432.507 86.2965 432.976 93.4719 432.976 103.6H434.976C434.976 93.4615 434.511 86.1035 433.554 81.5925L431.598 82.0075ZM432.976 103.6C432.976 113.728 432.507 120.903 431.598 125.192L433.554 125.608C434.511 121.097 434.976 113.739 434.976 103.6H432.976ZM431.595 125.207C430.782 129.333 428.655 132.269 425.204 134.119L426.148 135.881C430.163 133.731 432.636 130.267 433.557 125.593L431.595 125.207ZM425.197 134.122C421.766 135.994 415.819 137 407.176 137V139C415.866 139 422.253 138.006 426.155 135.878L425.197 134.122ZM407.176 137H385.576V139H407.176V137ZM386.576 138V69.2H384.576V138H386.576ZM406.776 126.1C408.865 126.1 410.633 126.016 412.07 125.843C413.49 125.672 414.659 125.406 415.506 125.003L414.646 123.197C414.092 123.461 413.178 123.695 411.831 123.857C410.502 124.017 408.82 124.1 406.776 124.1V126.1ZM415.506 125.003C417.379 124.111 418.321 122.029 418.668 119.327L416.684 119.073C416.364 121.571 415.573 122.756 414.646 123.197L415.506 125.003ZM418.665 119.348C419.078 116.596 419.276 111.323 419.276 103.6H417.276C417.276 111.343 417.074 116.47 416.687 119.052L418.665 119.348ZM419.276 103.6C419.276 95.8785 419.078 90.6357 418.664 87.9479L416.687 88.2521C417.074 90.7642 417.276 95.8549 417.276 103.6H419.276ZM418.665 87.9517C418.251 85.1968 417.274 83.0866 415.406 82.1971L414.546 84.0029C415.478 84.4468 416.3 85.6699 416.687 88.2483L418.665 87.9517ZM415.423 82.2056C414.601 81.7946 413.448 81.5282 412.047 81.3574C410.625 81.184 408.865 81.1 406.776 81.1V83.1C408.82 83.1 410.493 83.1826 411.805 83.3426C413.137 83.5051 414.017 83.7387 414.529 83.9944L415.423 82.2056ZM406.776 81.1H401.076V83.1H406.776V81.1ZM400.076 82.1V125.1H402.076V82.1H400.076ZM401.076 126.1H406.776V124.1H401.076V126.1ZM513.823 138L512.842 138.192L513 139H513.823V138ZM505.023 92.9L506.005 92.7085L505.847 91.9H505.023V92.9ZM504.423 92.9V91.9H503.6L503.442 92.7085L504.423 92.9ZM495.623 138V139H496.447L496.605 138.192L495.623 138ZM475.223 138L474.241 138.186L474.395 139H475.223V138ZM462.223 69.2V68.2H461.017L461.241 69.3857L462.223 69.2ZM477.823 69.2L478.811 69.0409L478.675 68.2H477.823V69.2ZM486.123 120.7L485.136 120.859L485.272 121.7H486.123V120.7ZM486.723 120.7V121.7H487.551L487.706 120.887L486.723 120.7ZM496.523 69.2V68.2H495.696L495.541 69.0131L496.523 69.2ZM513.423 69.2L514.405 69.0094L514.248 68.2H513.423V69.2ZM523.423 120.7L522.442 120.891L522.599 121.7H523.423V120.7ZM524.023 120.7V121.7H524.883L525.012 120.85L524.023 120.7ZM531.823 69.2V68.2H530.963L530.835 69.0502L531.823 69.2ZM547.323 69.2L548.306 69.387L548.532 68.2H547.323V69.2ZM534.223 138V139H535.051L535.206 138.187L534.223 138ZM514.805 137.808L506.005 92.7085L504.042 93.0915L512.842 138.192L514.805 137.808ZM505.023 91.9H504.423V93.9H505.023V91.9ZM503.442 92.7085L494.642 137.808L496.605 138.192L505.405 93.0915L503.442 92.7085ZM495.623 137H475.223V139H495.623V137ZM476.206 137.814L463.206 69.0143L461.241 69.3857L474.241 138.186L476.206 137.814ZM462.223 70.2H477.823V68.2H462.223V70.2ZM476.836 69.3591L485.136 120.859L487.111 120.541L478.811 69.0409L476.836 69.3591ZM486.123 121.7H486.723V119.7H486.123V121.7ZM487.706 120.887L497.506 69.3869L495.541 69.0131L485.741 120.513L487.706 120.887ZM496.523 70.2H513.423V68.2H496.523V70.2ZM512.442 69.3906L522.442 120.891L524.405 120.509L514.405 69.0094L512.442 69.3906ZM523.423 121.7H524.023V119.7H523.423V121.7ZM525.012 120.85L532.812 69.3497L530.835 69.0502L523.035 120.55L525.012 120.85ZM531.823 70.2H547.323V68.2H531.823V70.2ZM546.341 69.013L533.241 137.813L535.206 138.187L548.306 69.387L546.341 69.013ZM534.223 137H513.823V139H534.223V137ZM559.356 135.8L558.851 136.663L558.861 136.669L558.871 136.674L559.356 135.8ZM552.656 126L551.674 126.188L551.676 126.196L551.677 126.205L552.656 126ZM552.656 81.3L551.677 81.0983L551.675 81.1095L552.656 81.3ZM559.356 71.5L559.849 72.3703L559.854 72.3673L559.356 71.5ZM595.156 71.5L594.651 72.3632L594.661 72.3688L594.671 72.3742L595.156 71.5ZM601.856 81.2L602.838 81.0095L602.838 81.0095L601.856 81.2ZM601.856 126L602.838 126.19L602.838 126.19L601.856 126ZM595.156 135.8L595.649 136.67L595.654 136.667L595.156 135.8ZM584.456 124.8L583.955 123.935L583.945 123.941L583.935 123.947L584.456 124.8ZM586.856 119.6L585.864 119.479L585.864 119.479L586.856 119.6ZM586.856 87.6L585.864 87.7211L585.864 87.7211L586.856 87.6ZM584.456 82.4L583.935 83.2533L583.945 83.2595L583.955 83.2654L584.456 82.4ZM569.956 82.4L569.455 81.5346L569.445 81.5405L569.435 81.5467L569.956 82.4ZM567.656 87.6L568.649 87.7211L568.649 87.7211L567.656 87.6ZM567.656 119.6L568.649 119.479L568.649 119.479L567.656 119.6ZM569.956 124.8L569.435 125.653L569.445 125.659L569.455 125.665L569.956 124.8ZM577.256 137.8C568.952 137.8 563.206 136.795 559.842 134.926L558.871 136.674C562.707 138.805 568.894 139.8 577.256 139.8V137.8ZM559.861 134.937C556.601 133.03 554.518 130.021 553.635 125.795L551.677 126.205C552.661 130.913 555.045 134.437 558.851 136.663L559.861 134.937ZM553.638 125.812C552.791 121.38 552.356 113.995 552.356 103.6H550.356C550.356 114.005 550.788 121.554 551.674 126.188L553.638 125.812ZM552.356 103.6C552.356 93.2037 552.791 85.8546 553.638 81.4905L551.675 81.1095C550.788 85.6787 550.356 93.1963 550.356 103.6H552.356ZM553.636 81.5016C554.52 77.207 556.603 74.2074 559.849 72.3703L558.864 70.6297C555.043 72.7926 552.659 76.3263 551.677 81.0983L553.636 81.5016ZM559.854 72.3673C563.214 70.4385 568.954 69.4 577.256 69.4V67.4C568.892 67.4 562.699 68.4282 558.858 70.6327L559.854 72.3673ZM577.256 69.4C585.629 69.4 591.363 70.4398 594.651 72.3632L595.661 70.6368C591.883 68.4268 585.683 67.4 577.256 67.4V69.4ZM594.671 72.3742C597.983 74.2145 600.057 77.1794 600.875 81.3905L602.838 81.0095C601.922 76.2872 599.529 72.7854 595.642 70.6258L594.671 72.3742ZM600.875 81.3905C601.721 85.7544 602.156 93.1366 602.156 103.6H604.156C604.156 93.1301 603.725 85.5789 602.838 81.0095L600.875 81.3905ZM602.156 103.6C602.156 114.063 601.721 121.446 600.875 125.81L602.838 126.19C603.725 121.621 604.156 114.07 604.156 103.6H602.156ZM600.875 125.81C600.057 130.022 597.98 133.026 594.658 134.933L595.654 136.667C599.532 134.441 601.922 130.911 602.838 126.19L600.875 125.81ZM594.664 134.93C591.371 136.793 585.631 137.8 577.256 137.8V139.8C585.681 139.8 591.875 138.807 595.649 136.67L594.664 134.93ZM577.256 126.9C579.085 126.9 580.64 126.807 581.907 126.614C583.157 126.423 584.211 126.122 584.978 125.653L583.935 123.947C583.502 124.211 582.756 124.461 581.605 124.636C580.473 124.809 579.027 124.9 577.256 124.9V126.9ZM584.957 125.665C586.66 124.679 587.509 122.509 587.849 119.721L585.864 119.479C585.537 122.157 584.786 123.454 583.955 123.935L584.957 125.665ZM587.849 119.721C588.191 116.918 588.356 111.525 588.356 103.6H586.356C586.356 111.542 586.188 116.815 585.864 119.479L587.849 119.721ZM588.356 103.6C588.356 95.675 588.191 90.282 587.849 87.4789L585.864 87.7211C586.188 90.3846 586.356 95.6583 586.356 103.6H588.356ZM587.849 87.4789C587.509 84.6908 586.66 82.5205 584.957 81.5346L583.955 83.2654C584.786 83.7461 585.537 85.0425 585.864 87.7211L587.849 87.4789ZM584.978 81.5467C584.211 81.0779 583.157 80.7774 581.907 80.5865C580.64 80.3928 579.085 80.3 577.256 80.3V82.3C579.027 82.3 580.473 82.3905 581.605 82.5635C582.756 82.7393 583.502 82.9887 583.935 83.2533L584.978 81.5467ZM577.256 80.3C575.427 80.3 573.865 80.3929 572.582 80.5862C571.314 80.7772 570.247 81.0764 569.455 81.5346L570.457 83.2654C570.933 82.9902 571.715 82.7395 572.88 82.5638C574.031 82.3905 575.486 82.3 577.256 82.3V80.3ZM569.435 81.5467C567.81 82.5396 567.002 84.7065 566.664 87.4789L568.649 87.7211C568.977 85.0269 569.702 83.727 570.478 83.2533L569.435 81.5467ZM566.664 87.4789C566.322 90.282 566.156 95.675 566.156 103.6H568.156C568.156 95.6583 568.324 90.3846 568.649 87.7211L566.664 87.4789ZM566.156 103.6C566.156 111.525 566.322 116.918 566.664 119.721L568.649 119.479C568.324 116.815 568.156 111.542 568.156 103.6H566.156ZM566.664 119.721C567.002 122.494 567.81 124.66 569.435 125.653L570.478 123.947C569.702 123.473 568.977 122.173 568.649 119.479L566.664 119.721ZM569.455 125.665C570.247 126.124 571.314 126.423 572.582 126.614C573.865 126.807 575.427 126.9 577.256 126.9V124.9C575.486 124.9 574.031 124.81 572.88 124.636C571.715 124.461 570.933 124.21 570.457 123.935L569.455 125.665ZM647.787 138L646.838 138.315L647.065 139H647.787V138ZM639.787 113.9L640.736 113.585L640.508 112.9H639.787V113.9ZM629.787 113.9V112.9H628.787V113.9H629.787ZM629.787 138V139H630.787V138H629.787ZM614.287 138H613.287V139H614.287V138ZM614.287 69.2V68.2H613.287V69.2H614.287ZM655.387 71.8L654.869 72.6557L654.877 72.6602L654.884 72.6645L655.387 71.8ZM661.087 79L660.128 79.2855L660.131 79.2948L660.134 79.304L661.087 79ZM660.987 104L661.941 104.299L661.942 104.294L660.987 104ZM654.487 111.5L654.047 110.602L653.241 110.997L653.547 111.841L654.487 111.5ZM664.087 138V139H665.513L665.027 137.659L664.087 138ZM643.787 100.4L643.441 99.4617L643.433 99.4647L643.424 99.468L643.787 100.4ZM646.287 97.9L647.235 98.2162L647.238 98.2087L647.24 98.2011L646.287 97.9ZM646.287 85.3L645.32 85.5545L645.328 85.5857L645.338 85.6162L646.287 85.3ZM643.887 82.8L643.524 83.732L643.555 83.7438L643.586 83.7536L643.887 82.8ZM629.787 82.1V81.1H628.787V82.1H629.787ZM629.787 101.1H628.787V102.1H629.787V101.1ZM648.736 137.685L640.736 113.585L638.838 114.215L646.838 138.315L648.736 137.685ZM639.787 112.9H629.787V114.9H639.787V112.9ZM628.787 113.9V138H630.787V113.9H628.787ZM629.787 137H614.287V139H629.787V137ZM615.287 138V69.2H613.287V138H615.287ZM614.287 70.2H642.587V68.2H614.287V70.2ZM642.587 70.2C648.183 70.2 652.233 71.0614 654.869 72.6557L655.904 70.9443C652.808 69.0719 648.324 68.2 642.587 68.2V70.2ZM654.884 72.6645C657.534 74.2052 659.269 76.4 660.128 79.2855L662.045 78.7145C661.038 75.3334 658.973 72.7281 655.889 70.9355L654.884 72.6645ZM660.134 79.304C661.09 82.2991 661.587 86.3506 661.587 91.5H663.587C663.587 86.2494 663.084 81.9676 662.039 78.696L660.134 79.304ZM661.587 91.5C661.587 96.2987 661.06 100.361 660.031 103.706L661.942 104.294C663.047 100.706 663.587 96.4346 663.587 91.5H661.587ZM660.033 103.701C659.05 106.833 657.073 109.12 654.047 110.602L654.927 112.398C658.434 110.68 660.79 107.967 661.941 104.299L660.033 103.701ZM653.547 111.841L663.147 138.341L665.027 137.659L655.427 111.159L653.547 111.841ZM664.087 137H647.787V139H664.087V137ZM637.587 102.1C640.526 102.1 642.759 101.872 644.149 101.332L643.424 99.468C642.414 99.8608 640.514 100.1 637.587 100.1V102.1ZM644.132 101.338C645.662 100.775 646.732 99.726 647.235 98.2162L645.338 97.5838C645.041 98.474 644.445 99.0919 643.441 99.4617L644.132 101.338ZM647.24 98.2011C647.69 96.7765 647.887 94.5426 647.887 91.6H645.887C645.887 94.5241 645.683 96.4901 645.333 97.5989L647.24 98.2011ZM647.887 91.6C647.887 88.5996 647.692 86.353 647.235 84.9838L645.338 85.6162C645.682 86.647 645.887 88.6004 645.887 91.6H647.887ZM647.254 85.0455C646.832 83.4413 645.776 82.348 644.188 81.8464L643.586 83.7536C644.531 84.052 645.075 84.6254 645.32 85.5545L647.254 85.0455ZM644.249 81.868C642.859 81.3275 640.626 81.1 637.687 81.1V83.1C640.614 83.1 642.514 83.3392 643.524 83.732L644.249 81.868ZM637.687 81.1H629.787V83.1H637.687V81.1ZM628.787 82.1V101.1H630.787V82.1H628.787ZM629.787 102.1H637.587V100.1H629.787V102.1ZM708.566 138L707.687 138.477L707.971 139H708.566V138ZM693.166 109.6L694.045 109.123L693.762 108.6H693.166V109.6ZM688.966 109.6V108.6H687.966V109.6H688.966ZM688.966 138V139H689.966V138H688.966ZM673.466 138H672.466V139H673.466V138ZM673.466 69.2V68.2H672.466V69.2H673.466ZM688.966 69.2H689.966V68.2H688.966V69.2ZM688.966 96.5H687.966V97.5H688.966V96.5ZM693.166 96.5V97.5H693.745L694.033 96.9985L693.166 96.5ZM708.866 69.2V68.2H708.288L708 68.7015L708.866 69.2ZM725.566 69.2L726.42 69.7206L727.347 68.2H725.566V69.2ZM705.566 102L704.713 101.479L704.408 101.979L704.694 102.489L705.566 102ZM725.766 138V139H727.474L726.639 137.511L725.766 138ZM709.445 137.523L694.045 109.123L692.287 110.077L707.687 138.477L709.445 137.523ZM693.166 108.6H688.966V110.6H693.166V108.6ZM687.966 109.6V138H689.966V109.6H687.966ZM688.966 137H673.466V139H688.966V137ZM674.466 138V69.2H672.466V138H674.466ZM673.466 70.2H688.966V68.2H673.466V70.2ZM687.966 69.2V96.5H689.966V69.2H687.966ZM688.966 97.5H693.166V95.5H688.966V97.5ZM694.033 96.9985L709.733 69.6985L708 68.7015L692.3 96.0015L694.033 96.9985ZM708.866 70.2H725.566V68.2H708.866V70.2ZM724.713 68.6794L704.713 101.479L706.42 102.521L726.42 69.7206L724.713 68.6794ZM704.694 102.489L724.894 138.489L726.639 137.511L706.439 101.511L704.694 102.489ZM725.766 137H708.566V139H725.766V137Z" fill="white" style="mix-blend-mode:exclusion" mask="url(#path-2-outside-1_957_2)"/>
</svg>
