<svg width="57" height="337" viewBox="0 0 57 337" fill="none" xmlns="http://www.w3.org/2000/svg">
<path d="M56 336.96H0.959998V324.48H56V336.96ZM56 286.06L24.56 302.22V302.62H56V314.54H0.959998L0.959998 301.98L29.84 286.86V286.46H0.959998V274.54H56V286.06ZM0.959998 264.458L0.959998 247.178C0.959998 240.245 1.76 235.311 3.36 232.378C4.96 229.391 7.52 227.551 11.04 226.858C14.56 226.111 20.3733 225.738 28.48 225.738C36.5867 225.738 42.4 226.111 45.92 226.858C49.44 227.551 52 229.391 53.6 232.378C55.2 235.311 56 240.245 56 247.178V264.458H0.959998ZM45.68 247.498C45.68 244.191 45.4133 241.978 44.88 240.858C44.3467 239.738 43.04 239.045 40.96 238.778C38.8267 238.458 34.6667 238.298 28.48 238.298C22.2933 238.298 18.16 238.458 16.08 238.778C13.9467 239.098 12.6133 239.818 12.08 240.938C11.5467 242.005 11.28 244.191 11.28 247.498V252.058H45.68V247.498ZM0.959998 178.482H31.36C38.72 178.482 44.0533 178.855 47.36 179.602C50.6667 180.349 53.04 182.055 54.48 184.722C55.92 187.389 56.64 191.762 56.64 197.842C56.64 203.922 55.92 208.295 54.48 210.962C53.04 213.629 50.6667 215.362 47.36 216.162C44 216.909 38.6667 217.282 31.36 217.282H0.959998V204.802H34.64C38.5333 204.802 41.2267 204.695 42.72 204.482C44.2133 204.215 45.2 203.629 45.68 202.722C46.16 201.815 46.4 200.189 46.4 197.842C46.4 195.495 46.16 193.895 45.68 193.042C45.2 192.135 44.24 191.575 42.8 191.362C41.3067 191.095 38.5867 190.962 34.64 190.962H0.959998V178.482ZM56.64 151.717C56.64 158.384 56.1867 164.277 55.28 169.397H45.52C46.0533 162.784 46.32 158.09 46.32 155.317C46.32 153.13 46.2133 151.424 46 150.197C45.7867 148.97 45.4133 148.09 44.88 147.557C44.4 147.077 43.8133 146.784 43.12 146.677C42.4267 146.517 41.44 146.437 40.16 146.437C38.4533 146.437 37.2533 146.544 36.56 146.757C35.8133 146.97 35.28 147.424 34.96 148.117C34.64 148.757 34.3467 149.877 34.08 151.477L32.8 160.357C32.2133 164.41 30.64 167.157 28.08 168.597C25.52 170.037 21.84 170.757 17.04 170.757C12.4 170.757 8.85333 169.984 6.4 168.437C3.94667 166.89 2.32 164.784 1.52 162.117C0.719996 159.45 0.319997 156.064 0.319997 151.957C0.319997 146.89 0.85333 141.69 1.92 136.357H11.52C10.9333 141.157 10.64 145.424 10.64 149.157C10.64 153.104 11.0133 155.637 11.76 156.757C12.1333 157.397 12.6667 157.797 13.36 157.957C14 158.117 15.0133 158.197 16.4 158.197C17.9467 158.197 19.04 158.117 19.68 157.957C20.32 157.797 20.8 157.45 21.12 156.917C21.3867 156.33 21.6267 155.344 21.84 153.957L23.2 144.437C23.52 142.304 24.0533 140.544 24.8 139.157C25.5467 137.717 26.8267 136.544 28.64 135.637C30.9867 134.517 34.3467 133.957 38.72 133.957C43.84 133.957 47.7067 134.677 50.32 136.117C52.9333 137.557 54.64 139.53 55.44 142.037C56.24 144.49 56.64 147.717 56.64 151.717ZM56 116.828H11.68V129.788H0.959998V91.3081H11.68V104.348H56V116.828ZM56 58.3612L36.72 64.7612V72.7612H56V85.1612H0.959998L0.959998 62.5212C0.959998 57.9879 1.65333 54.5746 3.04 52.2812C4.37333 49.9879 6.29333 48.4679 8.8 47.7212C11.3067 46.9212 14.64 46.5212 18.8 46.5212C22.6933 46.5212 26.0267 46.9479 28.8 47.8012C31.52 48.6546 33.52 50.3879 34.8 53.0012L56 45.3212V58.3612ZM26.48 66.5212C26.48 64.1746 26.2933 62.5212 25.92 61.5612C25.5467 60.5479 24.88 59.8812 23.92 59.5612C22.9067 59.2412 21.2267 59.0812 18.88 59.0812C16.48 59.0812 14.8 59.2412 13.84 59.5612C12.8267 59.8279 12.16 60.4679 11.84 61.4812C11.4667 62.4412 11.28 64.0946 11.28 66.4412V72.7612H26.48V66.5212ZM56 28.3456H37.04L0.959998 44.1856V31.3856L24.4 22.1856V21.5456L0.959998 12.5856V0.105621L37.04 15.8656H56V28.3456Z" fill="white"/>
</svg>
