<svg width="57" height="327" viewBox="0 0 57 327" fill="none" xmlns="http://www.w3.org/2000/svg">
<path d="M0.959998 326.88V304.56C0.959998 300.133 1.68 296.8 3.12 294.56C4.50666 292.32 6.50666 290.827 9.12 290.08C11.7333 289.28 15.2267 288.88 19.6 288.88C23.76 288.88 27.1467 289.253 29.76 290C32.3733 290.693 34.4533 292.187 36 294.48C37.5467 296.773 38.32 300.16 38.32 304.64V314.48H56V326.88H0.959998ZM28 308.88C28 306.533 27.8133 304.853 27.44 303.84C27.0133 302.827 26.2667 302.16 25.2 301.84C24.08 301.52 22.2133 301.36 19.6 301.36C16.9867 301.36 15.1467 301.52 14.08 301.84C12.96 302.16 12.2133 302.827 11.84 303.84C11.4667 304.853 11.28 306.533 11.28 308.88V314.48H28V308.88ZM56 254.689L36.72 261.089V269.089H56V281.489H0.959998V258.849C0.959998 254.316 1.65333 250.903 3.04 248.609C4.37333 246.316 6.29333 244.796 8.8 244.049C11.3067 243.249 14.64 242.849 18.8 242.849C22.6933 242.849 26.0267 243.276 28.8 244.129C31.52 244.983 33.52 246.716 34.8 249.329L56 241.649V254.689ZM26.48 262.849C26.48 260.503 26.2933 258.849 25.92 257.889C25.5467 256.876 24.88 256.209 23.92 255.889C22.9067 255.569 21.2267 255.409 18.88 255.409C16.48 255.409 14.8 255.569 13.84 255.889C12.8267 256.156 12.16 256.796 11.84 257.809C11.4667 258.769 11.28 260.423 11.28 262.769V269.089H26.48V262.849ZM56.64 214.786C56.64 221.452 55.84 226.226 54.24 229.106C52.5867 231.932 49.9733 233.719 46.4 234.466C42.7733 235.159 36.8 235.506 28.48 235.506C20.16 235.506 14.2133 235.159 10.64 234.466C7.01333 233.719 4.4 231.932 2.8 229.106C1.14666 226.226 0.319997 221.452 0.319997 214.786C0.319997 208.066 1.14666 203.292 2.8 200.466C4.4 197.586 6.98666 195.799 10.56 195.106C14.1333 194.412 20.1067 194.066 28.48 194.066C36.8533 194.066 42.8267 194.412 46.4 195.106C49.9733 195.799 52.5867 197.586 54.24 200.466C55.84 203.292 56.64 208.066 56.64 214.786ZM46.32 214.786C46.32 211.906 46.0267 209.986 45.44 209.026C44.8533 208.012 43.4667 207.372 41.28 207.106C39.0933 206.839 34.8267 206.706 28.48 206.706C22.1333 206.706 17.8667 206.839 15.68 207.106C13.4933 207.372 12.1067 208.012 11.52 209.026C10.9333 209.986 10.64 211.906 10.64 214.786C10.64 217.666 10.9333 219.612 11.52 220.626C12.1067 221.586 13.4933 222.199 15.68 222.466C17.8667 222.732 22.1333 222.866 28.48 222.866C34.8267 222.866 39.0933 222.732 41.28 222.466C43.4667 222.199 44.8533 221.586 45.44 220.626C46.0267 219.612 46.32 217.666 46.32 214.786ZM46.4 188.841C46.3467 185.481 46.1333 183.215 45.76 182.041C45.3867 180.815 44.5333 180.041 43.2 179.721C41.8667 179.401 39.36 179.241 35.68 179.241H0.959998V166.761H31.44C39.9733 166.761 45.76 167.161 48.8 167.961C51.84 168.708 53.7867 170.468 54.64 173.241C55.4933 175.961 55.9467 181.161 56 188.841H46.4ZM56 156.958H0.959998L0.959998 123.838H11.28V144.558H23.04V126.798H33.36V144.558H45.68V123.838H56V156.958ZM55.28 83.805C55.6533 85.2983 55.9733 87.1917 56.24 89.485C56.5067 91.7783 56.64 93.9383 56.64 95.965C56.64 101.992 55.8133 106.445 54.16 109.325C52.4533 112.152 49.68 114.045 45.84 115.005C42 115.912 36.2133 116.365 28.48 116.365C20.8533 116.365 15.12 115.885 11.28 114.925C7.38666 113.965 4.58666 112.072 2.88 109.245C1.17333 106.365 0.319997 101.938 0.319997 95.965C0.319997 93.885 0.45333 91.7517 0.719996 89.565C0.986663 87.325 1.33333 85.485 1.76 84.045H11.36C10.88 88.5783 10.64 91.5917 10.64 93.085C10.64 96.7117 11.0133 99.2183 11.76 100.605C12.4533 101.938 13.92 102.792 16.16 103.165C18.3467 103.538 22.4533 103.725 28.48 103.725C34.5067 103.725 38.64 103.538 40.88 103.165C43.0667 102.792 44.5333 101.938 45.28 100.605C45.9733 99.2183 46.32 96.7117 46.32 93.085C46.32 89.9917 46.08 86.8983 45.6 83.805H55.28ZM56 66.9062H11.68V79.8662H0.959998L0.959998 41.3862H11.68L11.68 54.4262H56V66.9062ZM56.64 18.2794C56.64 24.946 56.1867 30.8394 55.28 35.9594H45.52C46.0533 29.346 46.32 24.6527 46.32 21.8794C46.32 19.6927 46.2133 17.986 46 16.7594C45.7867 15.5327 45.4133 14.6527 44.88 14.1194C44.4 13.6394 43.8133 13.346 43.12 13.2394C42.4267 13.0794 41.44 12.9994 40.16 12.9994C38.4533 12.9994 37.2533 13.106 36.56 13.3194C35.8133 13.5327 35.28 13.986 34.96 14.6794C34.64 15.3194 34.3467 16.4394 34.08 18.0394L32.8 26.9194C32.2133 30.9727 30.64 33.7194 28.08 35.1594C25.52 36.5994 21.84 37.3194 17.04 37.3194C12.4 37.3194 8.85333 36.546 6.4 34.9994C3.94667 33.4527 2.32 31.346 1.52 28.6794C0.719996 26.0127 0.319997 22.626 0.319997 18.5194C0.319997 13.4527 0.85333 8.25271 1.92 2.91937H11.52C10.9333 7.71937 10.64 11.986 10.64 15.7194C10.64 19.666 11.0133 22.1994 11.76 23.3194C12.1333 23.9594 12.6667 24.3594 13.36 24.5194C14 24.6794 15.0133 24.7594 16.4 24.7594C17.9467 24.7594 19.04 24.6794 19.68 24.5194C20.32 24.3594 20.8 24.0127 21.12 23.4794C21.3867 22.8927 21.6267 21.906 21.84 20.5194L23.2 10.9994C23.52 8.86604 24.0533 7.10604 24.8 5.71937C25.5467 4.27937 26.8267 3.10604 28.64 2.19937C30.9867 1.07937 34.3467 0.519373 38.72 0.519373C43.84 0.519373 47.7067 1.23937 50.32 2.67937C52.9333 4.11937 54.64 6.09271 55.44 8.59937C56.24 11.0527 56.64 14.2794 56.64 18.2794Z" fill="white"/>
</svg>
