<svg width="57" height="349" viewBox="0 0 57 349" fill="none" xmlns="http://www.w3.org/2000/svg">
<path d="M56 322.08L36.72 328.48V336.48H56V348.88H0.959998V326.24C0.959998 321.707 1.65333 318.293 3.04 316C4.37333 313.707 6.29333 312.187 8.8 311.44C11.3067 310.64 14.64 310.24 18.8 310.24C22.6933 310.24 26.0267 310.667 28.8 311.52C31.52 312.373 33.52 314.107 34.8 316.72L56 309.04V322.08ZM26.48 330.24C26.48 327.893 26.2933 326.24 25.92 325.28C25.5467 324.267 24.88 323.6 23.92 323.28C22.9067 322.96 21.2267 322.8 18.88 322.8C16.48 322.8 14.8 322.96 13.84 323.28C12.8267 323.547 12.16 324.187 11.84 325.2C11.4667 326.16 11.28 327.813 11.28 330.16V336.48H26.48V330.24ZM56 301.536H0.959998V268.416H11.28V289.136H23.04V271.376H33.36V289.136H45.68V268.416H56V301.536ZM56.64 242.623C56.64 249.29 56.1867 255.183 55.28 260.303H45.52C46.0533 253.69 46.32 248.996 46.32 246.223C46.32 244.036 46.2133 242.33 46 241.103C45.7867 239.876 45.4133 238.996 44.88 238.463C44.4 237.983 43.8133 237.69 43.12 237.583C42.4267 237.423 41.44 237.343 40.16 237.343C38.4533 237.343 37.2533 237.45 36.56 237.663C35.8133 237.876 35.28 238.33 34.96 239.023C34.64 239.663 34.3467 240.783 34.08 242.383L32.8 251.263C32.2133 255.316 30.64 258.063 28.08 259.503C25.52 260.943 21.84 261.663 17.04 261.663C12.4 261.663 8.85333 260.89 6.4 259.343C3.94667 257.796 2.32 255.69 1.52 253.023C0.719996 250.356 0.319997 246.97 0.319997 242.863C0.319997 237.796 0.85333 232.596 1.92 227.263H11.52C10.9333 232.063 10.64 236.33 10.64 240.063C10.64 244.01 11.0133 246.543 11.76 247.663C12.1333 248.303 12.6667 248.703 13.36 248.863C14 249.023 15.0133 249.103 16.4 249.103C17.9467 249.103 19.04 249.023 19.68 248.863C20.32 248.703 20.8 248.356 21.12 247.823C21.3867 247.236 21.6267 246.25 21.84 244.863L23.2 235.343C23.52 233.21 24.0533 231.45 24.8 230.063C25.5467 228.623 26.8267 227.45 28.64 226.543C30.9867 225.423 34.3467 224.863 38.72 224.863C43.84 224.863 47.7067 225.583 50.32 227.023C52.9333 228.463 54.64 230.436 55.44 232.943C56.24 235.396 56.64 238.623 56.64 242.623ZM56 216.614H0.959998L0.959998 183.494H11.28V204.214H23.04V186.454H33.36V204.214H45.68V183.494H56V216.614ZM56 144.981L44.96 147.781V164.021L56 166.661V179.141L0.959998 164.421L0.959998 146.981L56 132.341V144.981ZM12.16 155.701V156.181L34.72 161.541V150.261L12.16 155.701ZM56 99.7362L36.72 106.136V114.136H56V126.536H0.959998V103.896C0.959998 99.3629 1.65333 95.9496 3.04 93.6562C4.37333 91.3629 6.29333 89.8429 8.8 89.0962C11.3067 88.2962 14.64 87.8962 18.8 87.8962C22.6933 87.8962 26.0267 88.3229 28.8 89.1762C31.52 90.0296 33.52 91.7629 34.8 94.3762L56 86.6962V99.7362ZM26.48 107.896C26.48 105.55 26.2933 103.896 25.92 102.936C25.5467 101.923 24.88 101.256 23.92 100.936C22.9067 100.616 21.2267 100.456 18.88 100.456C16.48 100.456 14.8 100.616 13.84 100.936C12.8267 101.203 12.16 101.843 11.84 102.856C11.4667 103.816 11.28 105.47 11.28 107.816V114.136H26.48V107.896ZM55.28 47.9925C55.6533 49.4858 55.9733 51.3792 56.24 53.6725C56.5067 55.9658 56.64 58.1258 56.64 60.1525C56.64 66.1792 55.8133 70.6325 54.16 73.5125C52.4533 76.3392 49.68 78.2325 45.84 79.1925C42 80.0992 36.2133 80.5525 28.48 80.5525C20.8533 80.5525 15.12 80.0725 11.28 79.1125C7.38666 78.1525 4.58666 76.2592 2.88 73.4325C1.17333 70.5525 0.319997 66.1258 0.319997 60.1525C0.319997 58.0725 0.45333 55.9392 0.719996 53.7525C0.986663 51.5125 1.33333 49.6725 1.76 48.2325H11.36C10.88 52.7658 10.64 55.7792 10.64 57.2725C10.64 60.8992 11.0133 63.4058 11.76 64.7925C12.4533 66.1258 13.92 66.9792 16.16 67.3525C18.3467 67.7258 22.4533 67.9125 28.48 67.9125C34.5067 67.9125 38.64 67.7258 40.88 67.3525C43.0667 66.9792 44.5333 66.1258 45.28 64.7925C45.9733 63.4058 46.32 60.8992 46.32 57.2725C46.32 54.1792 46.08 51.0858 45.6 47.9925H55.28ZM56 12.9337H33.76V27.6537H56V40.1337H0.959998L0.959998 27.6537H22.88V12.9337H0.959998V0.453748H56L56 12.9337Z" fill="white"/>
</svg>
